G04 #@! TF.GenerationSoftware,KiCad,Pcbnew,5.0.1*
G04 #@! TF.CreationDate,2019-01-30T17:32:38+03:00*
G04 #@! TF.ProjectId,core,636F72652E6B696361645F7063620000,rev?*
G04 #@! TF.SameCoordinates,Original*
G04 #@! TF.FileFunction,Legend,Top*
G04 #@! TF.FilePolarity,Positive*
%FSLAX46Y46*%
G04 Gerber Fmt 4.6, Leading zero omitted, Abs format (unit mm)*
G04 Created by KiCad (PCBNEW 5.0.1) date Wed 30 Jan 2019 05:32:38 PM MSK*
%MOMM*%
%LPD*%
G01*
G04 APERTURE LIST*
%ADD10C,0.200000*%
%ADD11C,0.120000*%
%ADD12C,0.150000*%
G04 APERTURE END LIST*
D10*
X165000000Y-103150000D02*
X164050000Y-104100000D01*
D11*
G04 #@! TO.C,J10*
X160440000Y-97055000D02*
X160440000Y-97355507D01*
X160440000Y-98144493D02*
X160440000Y-98445000D01*
X167315000Y-97055000D02*
X160440000Y-97055000D01*
X167315000Y-98445000D02*
X160440000Y-98445000D01*
X167315000Y-97055000D02*
X167315000Y-97141724D01*
X167315000Y-98358276D02*
X167315000Y-98445000D01*
X168000000Y-97055000D02*
X168685000Y-97055000D01*
X168685000Y-97055000D02*
X168685000Y-97750000D01*
G04 #@! TO.C,J9*
X158260000Y-53870000D02*
X158260000Y-51270000D01*
X158260000Y-53870000D02*
X181240000Y-53870000D01*
X181240000Y-53870000D02*
X181240000Y-48670000D01*
X160860000Y-48670000D02*
X181240000Y-48670000D01*
X160860000Y-51270000D02*
X160860000Y-48670000D01*
X158260000Y-51270000D02*
X160860000Y-51270000D01*
X158260000Y-48670000D02*
X159590000Y-48670000D01*
X158260000Y-50000000D02*
X158260000Y-48670000D01*
D12*
G04 #@! TO.C,U3*
X172900000Y-106100000D02*
X172900000Y-106625000D01*
X168600000Y-110400000D02*
X168600000Y-109875000D01*
X172900000Y-110400000D02*
X172900000Y-109875000D01*
X168600000Y-106100000D02*
X169125000Y-106100000D01*
X168600000Y-110400000D02*
X169125000Y-110400000D01*
X172900000Y-110400000D02*
X172375000Y-110400000D01*
X172900000Y-106100000D02*
X172375000Y-106100000D01*
G04 #@! TO.C,U1*
X164625000Y-78125000D02*
X164625000Y-78775000D01*
X178875000Y-78125000D02*
X178875000Y-78885000D01*
X178875000Y-92375000D02*
X178875000Y-91615000D01*
X164625000Y-92375000D02*
X164625000Y-91615000D01*
X164625000Y-78125000D02*
X165385000Y-78125000D01*
X164625000Y-92375000D02*
X165385000Y-92375000D01*
X178875000Y-92375000D02*
X178115000Y-92375000D01*
X178875000Y-78125000D02*
X178115000Y-78125000D01*
X164625000Y-78775000D02*
X163100000Y-78775000D01*
D11*
G04 #@! TO.C,C30*
X151500000Y-96400000D02*
X150500000Y-96400000D01*
X150500000Y-98100000D02*
X151500000Y-98100000D01*
G04 #@! TO.C,C3*
X183650000Y-97750000D02*
X183650000Y-98750000D01*
X185350000Y-98750000D02*
X185350000Y-97750000D01*
G04 #@! TO.C,C2*
X162600000Y-92500000D02*
X162600000Y-91500000D01*
X160900000Y-91500000D02*
X160900000Y-92500000D01*
G04 #@! TO.C,C5*
X150500000Y-100350000D02*
X151500000Y-100350000D01*
X151500000Y-98650000D02*
X150500000Y-98650000D01*
G04 #@! TO.C,C12*
X164400000Y-104750000D02*
X164400000Y-105750000D01*
X166100000Y-105750000D02*
X166100000Y-104750000D01*
G04 #@! TO.C,C14*
X167750000Y-99900000D02*
X166750000Y-99900000D01*
X166750000Y-101600000D02*
X167750000Y-101600000D01*
G04 #@! TO.C,C16*
X183650000Y-93750000D02*
X183650000Y-94750000D01*
X185350000Y-94750000D02*
X185350000Y-93750000D01*
G04 #@! TO.C,C17*
X163500000Y-101230000D02*
X161500000Y-101230000D01*
X161500000Y-103270000D02*
X163500000Y-103270000D01*
G04 #@! TO.C,C18*
X160550000Y-108100000D02*
X159550000Y-108100000D01*
X159550000Y-109800000D02*
X160550000Y-109800000D01*
G04 #@! TO.C,C19*
X168750000Y-101900000D02*
X167750000Y-101900000D01*
X167750000Y-103600000D02*
X168750000Y-103600000D01*
G04 #@! TO.C,C20*
X170150000Y-101500000D02*
X170150000Y-102500000D01*
X171850000Y-102500000D02*
X171850000Y-101500000D01*
G04 #@! TO.C,C21*
X185980000Y-109500000D02*
X185980000Y-111500000D01*
X188020000Y-111500000D02*
X188020000Y-109500000D01*
G04 #@! TO.C,C22*
X179350000Y-111500000D02*
X179350000Y-110500000D01*
X177650000Y-110500000D02*
X177650000Y-111500000D01*
G04 #@! TO.C,C23*
X181520000Y-112000000D02*
X181520000Y-110000000D01*
X179480000Y-110000000D02*
X179480000Y-112000000D01*
G04 #@! TO.C,C25*
X182900000Y-78750000D02*
X182900000Y-79750000D01*
X184600000Y-79750000D02*
X184600000Y-78750000D01*
G04 #@! TO.C,C26*
X177750000Y-98600000D02*
X178750000Y-98600000D01*
X178750000Y-96900000D02*
X177750000Y-96900000D01*
G04 #@! TO.C,J1*
X157150000Y-121780000D02*
X165850000Y-121780000D01*
X157150000Y-115370000D02*
X165850000Y-115370000D01*
X165850000Y-115370000D02*
X165850000Y-121780000D01*
X165850000Y-120550000D02*
X157150000Y-120550000D01*
X157150000Y-121780000D02*
X157150000Y-115370000D01*
G04 #@! TO.C,J3*
X186330000Y-85630000D02*
X183670000Y-85630000D01*
X186330000Y-88230000D02*
X186330000Y-85630000D01*
X183670000Y-88230000D02*
X183670000Y-85630000D01*
X186330000Y-88230000D02*
X183670000Y-88230000D01*
X186330000Y-89500000D02*
X186330000Y-90830000D01*
X186330000Y-90830000D02*
X185000000Y-90830000D01*
G04 #@! TO.C,J4*
X183170000Y-100670000D02*
X183170000Y-103330000D01*
X185770000Y-100670000D02*
X183170000Y-100670000D01*
X185770000Y-103330000D02*
X183170000Y-103330000D01*
X185770000Y-100670000D02*
X185770000Y-103330000D01*
X187040000Y-100670000D02*
X188370000Y-100670000D01*
X188370000Y-100670000D02*
X188370000Y-102000000D01*
G04 #@! TO.C,J5*
X157170000Y-107580000D02*
X157170000Y-106250000D01*
X158500000Y-107580000D02*
X157170000Y-107580000D01*
X159770000Y-107580000D02*
X159770000Y-104920000D01*
X159770000Y-104920000D02*
X162370000Y-104920000D01*
X159770000Y-107580000D02*
X162370000Y-107580000D01*
X162370000Y-107580000D02*
X162370000Y-104920000D01*
G04 #@! TO.C,L1*
X189230000Y-90500000D02*
X189230000Y-92500000D01*
X186270000Y-92500000D02*
X186270000Y-90500000D01*
G04 #@! TO.C,R1*
X167180000Y-110250000D02*
X167180000Y-111250000D01*
X165820000Y-111250000D02*
X165820000Y-110250000D01*
G04 #@! TO.C,R2*
X164070000Y-110250000D02*
X164070000Y-109250000D01*
X165430000Y-109250000D02*
X165430000Y-110250000D01*
G04 #@! TO.C,R3*
X169250000Y-112930000D02*
X168250000Y-112930000D01*
X168250000Y-111570000D02*
X169250000Y-111570000D01*
G04 #@! TO.C,R4*
X173500000Y-113930000D02*
X172500000Y-113930000D01*
X172500000Y-112570000D02*
X173500000Y-112570000D01*
G04 #@! TO.C,R5*
X172250000Y-115430000D02*
X171250000Y-115430000D01*
X171250000Y-114070000D02*
X172250000Y-114070000D01*
G04 #@! TO.C,R6*
X174320000Y-114500000D02*
X174320000Y-113500000D01*
X175680000Y-113500000D02*
X175680000Y-114500000D01*
G04 #@! TO.C,TS1*
X177215000Y-112610000D02*
X177215000Y-111807530D01*
X177215000Y-111192470D02*
X177215000Y-110390000D01*
X176010000Y-112610000D02*
X177215000Y-112610000D01*
X176010000Y-110390000D02*
X177215000Y-110390000D01*
X176010000Y-112610000D02*
X176010000Y-112063471D01*
X176010000Y-110936529D02*
X176010000Y-110390000D01*
X175250000Y-112610000D02*
X174490000Y-112610000D01*
X174490000Y-112610000D02*
X174490000Y-111500000D01*
G04 #@! TO.C,U2*
X189560000Y-98130000D02*
X189560000Y-96370000D01*
X186490000Y-96370000D02*
X186490000Y-98800000D01*
G04 #@! TO.C,BT1*
X182670000Y-110770000D02*
X185330000Y-110770000D01*
X182670000Y-110770000D02*
X182670000Y-113370000D01*
X182670000Y-113370000D02*
X185330000Y-113370000D01*
X185330000Y-110770000D02*
X185330000Y-113370000D01*
X185330000Y-108170000D02*
X185330000Y-109500000D01*
X184000000Y-108170000D02*
X185330000Y-108170000D01*
D12*
G04 #@! TO.C,L2*
X173000000Y-100150000D02*
X179000000Y-100150000D01*
X173000000Y-104350000D02*
X179000000Y-104350000D01*
D11*
G04 #@! TO.C,C28*
X176260001Y-107974999D02*
X176260001Y-106974999D01*
X174560001Y-106974999D02*
X174560001Y-107974999D01*
G04 #@! TO.C,C29*
X176380001Y-106974999D02*
X176380001Y-107974999D01*
X178080001Y-107974999D02*
X178080001Y-106974999D01*
G04 #@! TO.C,J2*
X155890000Y-89695000D02*
X156692470Y-89695000D01*
X157307530Y-89695000D02*
X158110000Y-89695000D01*
X155890000Y-88490000D02*
X155890000Y-89695000D01*
X158110000Y-88490000D02*
X158110000Y-89695000D01*
X155890000Y-88490000D02*
X156436529Y-88490000D01*
X157563471Y-88490000D02*
X158110000Y-88490000D01*
X155890000Y-87730000D02*
X155890000Y-86970000D01*
X155890000Y-86970000D02*
X157000000Y-86970000D01*
G04 #@! TO.C,C31*
X153500000Y-72400000D02*
X152500000Y-72400000D01*
X152500000Y-74100000D02*
X153500000Y-74100000D01*
G04 #@! TO.C,C32*
X152500000Y-83150000D02*
X151500000Y-83150000D01*
X151500000Y-84850000D02*
X152500000Y-84850000D01*
G04 #@! TO.C,C33*
X152500000Y-85650000D02*
X151500000Y-85650000D01*
X151500000Y-87350000D02*
X152500000Y-87350000D01*
G04 #@! TO.C,R8*
X150680000Y-72000000D02*
X150680000Y-73000000D01*
X149320000Y-73000000D02*
X149320000Y-72000000D01*
G04 #@! TO.C,R9*
X153320000Y-98500000D02*
X153320000Y-97500000D01*
X154680000Y-97500000D02*
X154680000Y-98500000D01*
G04 #@! TO.C,R10*
X157750000Y-84180000D02*
X156750000Y-84180000D01*
X156750000Y-82820000D02*
X157750000Y-82820000D01*
G04 #@! TO.C,R11*
X157750000Y-85680000D02*
X156750000Y-85680000D01*
X156750000Y-84320000D02*
X157750000Y-84320000D01*
G04 #@! TO.C,U5*
X152300000Y-82450000D02*
X151700000Y-82450000D01*
X151700000Y-75050000D02*
X152300000Y-75050000D01*
X151700000Y-74550000D02*
X151700000Y-75050000D01*
X149300000Y-82450000D02*
X149600000Y-82450000D01*
X149300000Y-75050000D02*
X149300000Y-82450000D01*
X149600000Y-75050000D02*
X149300000Y-75050000D01*
X149600000Y-74550000D02*
X149600000Y-75050000D01*
X154700000Y-82450000D02*
X154400000Y-82450000D01*
X154700000Y-75050000D02*
X154700000Y-82450000D01*
X154400000Y-75050000D02*
X154700000Y-75050000D01*
G04 #@! TO.C,U6*
X149600000Y-95700000D02*
X149300000Y-95700000D01*
X149300000Y-95700000D02*
X149300000Y-88300000D01*
X149300000Y-88300000D02*
X149600000Y-88300000D01*
X154400000Y-96200000D02*
X154400000Y-95700000D01*
X154400000Y-95700000D02*
X154700000Y-95700000D01*
X154700000Y-95700000D02*
X154700000Y-88300000D01*
X154700000Y-88300000D02*
X154400000Y-88300000D01*
X152300000Y-96200000D02*
X152300000Y-95700000D01*
X152300000Y-95700000D02*
X151700000Y-95700000D01*
X151700000Y-88300000D02*
X152300000Y-88300000D01*
G04 #@! TO.C,C34*
X172350000Y-65500000D02*
X172350000Y-64500000D01*
X170650000Y-64500000D02*
X170650000Y-65500000D01*
G04 #@! TO.C,C35*
X173970000Y-63750000D02*
X173970000Y-63250000D01*
X173030000Y-63250000D02*
X173030000Y-63750000D01*
G04 #@! TO.C,J7*
X191680000Y-67870000D02*
X191680000Y-66030000D01*
X191680000Y-56630000D02*
X191680000Y-58860000D01*
X175170000Y-69020000D02*
X175680000Y-69020000D01*
X175170000Y-68700000D02*
X175170000Y-69020000D01*
X175170000Y-54790000D02*
X177080000Y-54790000D01*
X175170000Y-56320000D02*
X175170000Y-54790000D01*
G04 #@! TO.C,J8*
X185890000Y-84235000D02*
X186692470Y-84235000D01*
X187307530Y-84235000D02*
X188110000Y-84235000D01*
X185890000Y-79220000D02*
X185890000Y-84235000D01*
X188110000Y-79220000D02*
X188110000Y-84235000D01*
X185890000Y-79220000D02*
X186436529Y-79220000D01*
X187563471Y-79220000D02*
X188110000Y-79220000D01*
X185890000Y-78460000D02*
X185890000Y-77700000D01*
X185890000Y-77700000D02*
X187000000Y-77700000D01*
G04 #@! TO.C,U4*
X154650000Y-108890000D02*
X152850000Y-108890000D01*
X152850000Y-112110000D02*
X155300000Y-112110000D01*
G04 #@! TO.C,C7*
X160900000Y-76250000D02*
X160900000Y-77250000D01*
X162600000Y-77250000D02*
X162600000Y-76250000D01*
G04 #@! TO.C,C27*
X168500000Y-66650000D02*
X167500000Y-66650000D01*
X167500000Y-68350000D02*
X168500000Y-68350000D01*
G04 #@! TO.C,Q1*
X163260000Y-70580000D02*
X163260000Y-69650000D01*
X163260000Y-67420000D02*
X163260000Y-68350000D01*
X163260000Y-67420000D02*
X161100000Y-67420000D01*
X163260000Y-70580000D02*
X161800000Y-70580000D01*
G04 #@! TO.C,R7*
X166380000Y-69350000D02*
X166380000Y-70550000D01*
X164620000Y-70550000D02*
X164620000Y-69350000D01*
G04 #@! TO.C,C36*
X184600000Y-76000000D02*
X184600000Y-75000000D01*
X182900000Y-75000000D02*
X182900000Y-76000000D01*
G04 #@! TO.C,J10*
D12*
X169012380Y-98559523D02*
X169726666Y-98559523D01*
X169869523Y-98607142D01*
X169964761Y-98702380D01*
X170012380Y-98845238D01*
X170012380Y-98940476D01*
X170012380Y-97559523D02*
X170012380Y-98130952D01*
X170012380Y-97845238D02*
X169012380Y-97845238D01*
X169155238Y-97940476D01*
X169250476Y-98035714D01*
X169298095Y-98130952D01*
X169012380Y-96940476D02*
X169012380Y-96845238D01*
X169060000Y-96750000D01*
X169107619Y-96702380D01*
X169202857Y-96654761D01*
X169393333Y-96607142D01*
X169631428Y-96607142D01*
X169821904Y-96654761D01*
X169917142Y-96702380D01*
X169964761Y-96750000D01*
X170012380Y-96845238D01*
X170012380Y-96940476D01*
X169964761Y-97035714D01*
X169917142Y-97083333D01*
X169821904Y-97130952D01*
X169631428Y-97178571D01*
X169393333Y-97178571D01*
X169202857Y-97130952D01*
X169107619Y-97083333D01*
X169060000Y-97035714D01*
X169012380Y-96940476D01*
G04 #@! TO.C,J9*
X156272380Y-51603333D02*
X156986666Y-51603333D01*
X157129523Y-51650952D01*
X157224761Y-51746190D01*
X157272380Y-51889047D01*
X157272380Y-51984285D01*
X157272380Y-51079523D02*
X157272380Y-50889047D01*
X157224761Y-50793809D01*
X157177142Y-50746190D01*
X157034285Y-50650952D01*
X156843809Y-50603333D01*
X156462857Y-50603333D01*
X156367619Y-50650952D01*
X156320000Y-50698571D01*
X156272380Y-50793809D01*
X156272380Y-50984285D01*
X156320000Y-51079523D01*
X156367619Y-51127142D01*
X156462857Y-51174761D01*
X156700952Y-51174761D01*
X156796190Y-51127142D01*
X156843809Y-51079523D01*
X156891428Y-50984285D01*
X156891428Y-50793809D01*
X156843809Y-50698571D01*
X156796190Y-50650952D01*
X156700952Y-50603333D01*
G04 #@! TO.C,U3*
X169988095Y-104327380D02*
X169988095Y-105136904D01*
X170035714Y-105232142D01*
X170083333Y-105279761D01*
X170178571Y-105327380D01*
X170369047Y-105327380D01*
X170464285Y-105279761D01*
X170511904Y-105232142D01*
X170559523Y-105136904D01*
X170559523Y-104327380D01*
X170940476Y-104327380D02*
X171559523Y-104327380D01*
X171226190Y-104708333D01*
X171369047Y-104708333D01*
X171464285Y-104755952D01*
X171511904Y-104803571D01*
X171559523Y-104898809D01*
X171559523Y-105136904D01*
X171511904Y-105232142D01*
X171464285Y-105279761D01*
X171369047Y-105327380D01*
X171083333Y-105327380D01*
X170988095Y-105279761D01*
X170940476Y-105232142D01*
G04 #@! TO.C,U1*
X170988095Y-75052380D02*
X170988095Y-75861904D01*
X171035714Y-75957142D01*
X171083333Y-76004761D01*
X171178571Y-76052380D01*
X171369047Y-76052380D01*
X171464285Y-76004761D01*
X171511904Y-75957142D01*
X171559523Y-75861904D01*
X171559523Y-75052380D01*
X172559523Y-76052380D02*
X171988095Y-76052380D01*
X172273809Y-76052380D02*
X172273809Y-75052380D01*
X172178571Y-75195238D01*
X172083333Y-75290476D01*
X171988095Y-75338095D01*
G04 #@! TO.C,C30*
X150357142Y-96107142D02*
X150309523Y-96154761D01*
X150166666Y-96202380D01*
X150071428Y-96202380D01*
X149928571Y-96154761D01*
X149833333Y-96059523D01*
X149785714Y-95964285D01*
X149738095Y-95773809D01*
X149738095Y-95630952D01*
X149785714Y-95440476D01*
X149833333Y-95345238D01*
X149928571Y-95250000D01*
X150071428Y-95202380D01*
X150166666Y-95202380D01*
X150309523Y-95250000D01*
X150357142Y-95297619D01*
X150690476Y-95202380D02*
X151309523Y-95202380D01*
X150976190Y-95583333D01*
X151119047Y-95583333D01*
X151214285Y-95630952D01*
X151261904Y-95678571D01*
X151309523Y-95773809D01*
X151309523Y-96011904D01*
X151261904Y-96107142D01*
X151214285Y-96154761D01*
X151119047Y-96202380D01*
X150833333Y-96202380D01*
X150738095Y-96154761D01*
X150690476Y-96107142D01*
X151928571Y-95202380D02*
X152023809Y-95202380D01*
X152119047Y-95250000D01*
X152166666Y-95297619D01*
X152214285Y-95392857D01*
X152261904Y-95583333D01*
X152261904Y-95821428D01*
X152214285Y-96011904D01*
X152166666Y-96107142D01*
X152119047Y-96154761D01*
X152023809Y-96202380D01*
X151928571Y-96202380D01*
X151833333Y-96154761D01*
X151785714Y-96107142D01*
X151738095Y-96011904D01*
X151690476Y-95821428D01*
X151690476Y-95583333D01*
X151738095Y-95392857D01*
X151785714Y-95297619D01*
X151833333Y-95250000D01*
X151928571Y-95202380D01*
G04 #@! TO.C,C3*
X183357142Y-98416666D02*
X183404761Y-98464285D01*
X183452380Y-98607142D01*
X183452380Y-98702380D01*
X183404761Y-98845238D01*
X183309523Y-98940476D01*
X183214285Y-98988095D01*
X183023809Y-99035714D01*
X182880952Y-99035714D01*
X182690476Y-98988095D01*
X182595238Y-98940476D01*
X182500000Y-98845238D01*
X182452380Y-98702380D01*
X182452380Y-98607142D01*
X182500000Y-98464285D01*
X182547619Y-98416666D01*
X182452380Y-98083333D02*
X182452380Y-97464285D01*
X182833333Y-97797619D01*
X182833333Y-97654761D01*
X182880952Y-97559523D01*
X182928571Y-97511904D01*
X183023809Y-97464285D01*
X183261904Y-97464285D01*
X183357142Y-97511904D01*
X183404761Y-97559523D01*
X183452380Y-97654761D01*
X183452380Y-97940476D01*
X183404761Y-98035714D01*
X183357142Y-98083333D01*
G04 #@! TO.C,C1*
X183377142Y-79166666D02*
X183424761Y-79214285D01*
X183472380Y-79357142D01*
X183472380Y-79452380D01*
X183424761Y-79595238D01*
X183329523Y-79690476D01*
X183234285Y-79738095D01*
X183043809Y-79785714D01*
X182900952Y-79785714D01*
X182710476Y-79738095D01*
X182615238Y-79690476D01*
X182520000Y-79595238D01*
X182472380Y-79452380D01*
X182472380Y-79357142D01*
X182520000Y-79214285D01*
X182567619Y-79166666D01*
X183472380Y-78214285D02*
X183472380Y-78785714D01*
X183472380Y-78500000D02*
X182472380Y-78500000D01*
X182615238Y-78595238D01*
X182710476Y-78690476D01*
X182758095Y-78785714D01*
G04 #@! TO.C,C2*
X163607142Y-92166666D02*
X163654761Y-92214285D01*
X163702380Y-92357142D01*
X163702380Y-92452380D01*
X163654761Y-92595238D01*
X163559523Y-92690476D01*
X163464285Y-92738095D01*
X163273809Y-92785714D01*
X163130952Y-92785714D01*
X162940476Y-92738095D01*
X162845238Y-92690476D01*
X162750000Y-92595238D01*
X162702380Y-92452380D01*
X162702380Y-92357142D01*
X162750000Y-92214285D01*
X162797619Y-92166666D01*
X162797619Y-91785714D02*
X162750000Y-91738095D01*
X162702380Y-91642857D01*
X162702380Y-91404761D01*
X162750000Y-91309523D01*
X162797619Y-91261904D01*
X162892857Y-91214285D01*
X162988095Y-91214285D01*
X163130952Y-91261904D01*
X163702380Y-91833333D01*
X163702380Y-91214285D01*
G04 #@! TO.C,C4*
X163833333Y-96827142D02*
X163785714Y-96874761D01*
X163642857Y-96922380D01*
X163547619Y-96922380D01*
X163404761Y-96874761D01*
X163309523Y-96779523D01*
X163261904Y-96684285D01*
X163214285Y-96493809D01*
X163214285Y-96350952D01*
X163261904Y-96160476D01*
X163309523Y-96065238D01*
X163404761Y-95970000D01*
X163547619Y-95922380D01*
X163642857Y-95922380D01*
X163785714Y-95970000D01*
X163833333Y-96017619D01*
X164690476Y-96255714D02*
X164690476Y-96922380D01*
X164452380Y-95874761D02*
X164214285Y-96589047D01*
X164833333Y-96589047D01*
G04 #@! TO.C,C5*
X150833333Y-98357142D02*
X150785714Y-98404761D01*
X150642857Y-98452380D01*
X150547619Y-98452380D01*
X150404761Y-98404761D01*
X150309523Y-98309523D01*
X150261904Y-98214285D01*
X150214285Y-98023809D01*
X150214285Y-97880952D01*
X150261904Y-97690476D01*
X150309523Y-97595238D01*
X150404761Y-97500000D01*
X150547619Y-97452380D01*
X150642857Y-97452380D01*
X150785714Y-97500000D01*
X150833333Y-97547619D01*
X151738095Y-97452380D02*
X151261904Y-97452380D01*
X151214285Y-97928571D01*
X151261904Y-97880952D01*
X151357142Y-97833333D01*
X151595238Y-97833333D01*
X151690476Y-97880952D01*
X151738095Y-97928571D01*
X151785714Y-98023809D01*
X151785714Y-98261904D01*
X151738095Y-98357142D01*
X151690476Y-98404761D01*
X151595238Y-98452380D01*
X151357142Y-98452380D01*
X151261904Y-98404761D01*
X151214285Y-98357142D01*
G04 #@! TO.C,C6*
X160087142Y-83616666D02*
X160134761Y-83664285D01*
X160182380Y-83807142D01*
X160182380Y-83902380D01*
X160134761Y-84045238D01*
X160039523Y-84140476D01*
X159944285Y-84188095D01*
X159753809Y-84235714D01*
X159610952Y-84235714D01*
X159420476Y-84188095D01*
X159325238Y-84140476D01*
X159230000Y-84045238D01*
X159182380Y-83902380D01*
X159182380Y-83807142D01*
X159230000Y-83664285D01*
X159277619Y-83616666D01*
X159182380Y-82759523D02*
X159182380Y-82950000D01*
X159230000Y-83045238D01*
X159277619Y-83092857D01*
X159420476Y-83188095D01*
X159610952Y-83235714D01*
X159991904Y-83235714D01*
X160087142Y-83188095D01*
X160134761Y-83140476D01*
X160182380Y-83045238D01*
X160182380Y-82854761D01*
X160134761Y-82759523D01*
X160087142Y-82711904D01*
X159991904Y-82664285D01*
X159753809Y-82664285D01*
X159658571Y-82711904D01*
X159610952Y-82759523D01*
X159563333Y-82854761D01*
X159563333Y-83045238D01*
X159610952Y-83140476D01*
X159658571Y-83188095D01*
X159753809Y-83235714D01*
G04 #@! TO.C,C9*
X161627142Y-88966666D02*
X161674761Y-89014285D01*
X161722380Y-89157142D01*
X161722380Y-89252380D01*
X161674761Y-89395238D01*
X161579523Y-89490476D01*
X161484285Y-89538095D01*
X161293809Y-89585714D01*
X161150952Y-89585714D01*
X160960476Y-89538095D01*
X160865238Y-89490476D01*
X160770000Y-89395238D01*
X160722380Y-89252380D01*
X160722380Y-89157142D01*
X160770000Y-89014285D01*
X160817619Y-88966666D01*
X161722380Y-88490476D02*
X161722380Y-88300000D01*
X161674761Y-88204761D01*
X161627142Y-88157142D01*
X161484285Y-88061904D01*
X161293809Y-88014285D01*
X160912857Y-88014285D01*
X160817619Y-88061904D01*
X160770000Y-88109523D01*
X160722380Y-88204761D01*
X160722380Y-88395238D01*
X160770000Y-88490476D01*
X160817619Y-88538095D01*
X160912857Y-88585714D01*
X161150952Y-88585714D01*
X161246190Y-88538095D01*
X161293809Y-88490476D01*
X161341428Y-88395238D01*
X161341428Y-88204761D01*
X161293809Y-88109523D01*
X161246190Y-88061904D01*
X161150952Y-88014285D01*
G04 #@! TO.C,C10*
X161227142Y-82842857D02*
X161274761Y-82890476D01*
X161322380Y-83033333D01*
X161322380Y-83128571D01*
X161274761Y-83271428D01*
X161179523Y-83366666D01*
X161084285Y-83414285D01*
X160893809Y-83461904D01*
X160750952Y-83461904D01*
X160560476Y-83414285D01*
X160465238Y-83366666D01*
X160370000Y-83271428D01*
X160322380Y-83128571D01*
X160322380Y-83033333D01*
X160370000Y-82890476D01*
X160417619Y-82842857D01*
X161322380Y-81890476D02*
X161322380Y-82461904D01*
X161322380Y-82176190D02*
X160322380Y-82176190D01*
X160465238Y-82271428D01*
X160560476Y-82366666D01*
X160608095Y-82461904D01*
X160322380Y-81271428D02*
X160322380Y-81176190D01*
X160370000Y-81080952D01*
X160417619Y-81033333D01*
X160512857Y-80985714D01*
X160703333Y-80938095D01*
X160941428Y-80938095D01*
X161131904Y-80985714D01*
X161227142Y-81033333D01*
X161274761Y-81080952D01*
X161322380Y-81176190D01*
X161322380Y-81271428D01*
X161274761Y-81366666D01*
X161227142Y-81414285D01*
X161131904Y-81461904D01*
X160941428Y-81509523D01*
X160703333Y-81509523D01*
X160512857Y-81461904D01*
X160417619Y-81414285D01*
X160370000Y-81366666D01*
X160322380Y-81271428D01*
G04 #@! TO.C,C11*
X160087142Y-89842857D02*
X160134761Y-89890476D01*
X160182380Y-90033333D01*
X160182380Y-90128571D01*
X160134761Y-90271428D01*
X160039523Y-90366666D01*
X159944285Y-90414285D01*
X159753809Y-90461904D01*
X159610952Y-90461904D01*
X159420476Y-90414285D01*
X159325238Y-90366666D01*
X159230000Y-90271428D01*
X159182380Y-90128571D01*
X159182380Y-90033333D01*
X159230000Y-89890476D01*
X159277619Y-89842857D01*
X160182380Y-88890476D02*
X160182380Y-89461904D01*
X160182380Y-89176190D02*
X159182380Y-89176190D01*
X159325238Y-89271428D01*
X159420476Y-89366666D01*
X159468095Y-89461904D01*
X160182380Y-87938095D02*
X160182380Y-88509523D01*
X160182380Y-88223809D02*
X159182380Y-88223809D01*
X159325238Y-88319047D01*
X159420476Y-88414285D01*
X159468095Y-88509523D01*
G04 #@! TO.C,C12*
X164107142Y-105892857D02*
X164154761Y-105940476D01*
X164202380Y-106083333D01*
X164202380Y-106178571D01*
X164154761Y-106321428D01*
X164059523Y-106416666D01*
X163964285Y-106464285D01*
X163773809Y-106511904D01*
X163630952Y-106511904D01*
X163440476Y-106464285D01*
X163345238Y-106416666D01*
X163250000Y-106321428D01*
X163202380Y-106178571D01*
X163202380Y-106083333D01*
X163250000Y-105940476D01*
X163297619Y-105892857D01*
X164202380Y-104940476D02*
X164202380Y-105511904D01*
X164202380Y-105226190D02*
X163202380Y-105226190D01*
X163345238Y-105321428D01*
X163440476Y-105416666D01*
X163488095Y-105511904D01*
X163297619Y-104559523D02*
X163250000Y-104511904D01*
X163202380Y-104416666D01*
X163202380Y-104178571D01*
X163250000Y-104083333D01*
X163297619Y-104035714D01*
X163392857Y-103988095D01*
X163488095Y-103988095D01*
X163630952Y-104035714D01*
X164202380Y-104607142D01*
X164202380Y-103988095D01*
G04 #@! TO.C,C13*
X178057142Y-94587142D02*
X178009523Y-94634761D01*
X177866666Y-94682380D01*
X177771428Y-94682380D01*
X177628571Y-94634761D01*
X177533333Y-94539523D01*
X177485714Y-94444285D01*
X177438095Y-94253809D01*
X177438095Y-94110952D01*
X177485714Y-93920476D01*
X177533333Y-93825238D01*
X177628571Y-93730000D01*
X177771428Y-93682380D01*
X177866666Y-93682380D01*
X178009523Y-93730000D01*
X178057142Y-93777619D01*
X179009523Y-94682380D02*
X178438095Y-94682380D01*
X178723809Y-94682380D02*
X178723809Y-93682380D01*
X178628571Y-93825238D01*
X178533333Y-93920476D01*
X178438095Y-93968095D01*
X179342857Y-93682380D02*
X179961904Y-93682380D01*
X179628571Y-94063333D01*
X179771428Y-94063333D01*
X179866666Y-94110952D01*
X179914285Y-94158571D01*
X179961904Y-94253809D01*
X179961904Y-94491904D01*
X179914285Y-94587142D01*
X179866666Y-94634761D01*
X179771428Y-94682380D01*
X179485714Y-94682380D01*
X179390476Y-94634761D01*
X179342857Y-94587142D01*
G04 #@! TO.C,C14*
X166607142Y-102607142D02*
X166559523Y-102654761D01*
X166416666Y-102702380D01*
X166321428Y-102702380D01*
X166178571Y-102654761D01*
X166083333Y-102559523D01*
X166035714Y-102464285D01*
X165988095Y-102273809D01*
X165988095Y-102130952D01*
X166035714Y-101940476D01*
X166083333Y-101845238D01*
X166178571Y-101750000D01*
X166321428Y-101702380D01*
X166416666Y-101702380D01*
X166559523Y-101750000D01*
X166607142Y-101797619D01*
X167559523Y-102702380D02*
X166988095Y-102702380D01*
X167273809Y-102702380D02*
X167273809Y-101702380D01*
X167178571Y-101845238D01*
X167083333Y-101940476D01*
X166988095Y-101988095D01*
X168416666Y-102035714D02*
X168416666Y-102702380D01*
X168178571Y-101654761D02*
X167940476Y-102369047D01*
X168559523Y-102369047D01*
G04 #@! TO.C,C16*
X186357142Y-94892857D02*
X186404761Y-94940476D01*
X186452380Y-95083333D01*
X186452380Y-95178571D01*
X186404761Y-95321428D01*
X186309523Y-95416666D01*
X186214285Y-95464285D01*
X186023809Y-95511904D01*
X185880952Y-95511904D01*
X185690476Y-95464285D01*
X185595238Y-95416666D01*
X185500000Y-95321428D01*
X185452380Y-95178571D01*
X185452380Y-95083333D01*
X185500000Y-94940476D01*
X185547619Y-94892857D01*
X186452380Y-93940476D02*
X186452380Y-94511904D01*
X186452380Y-94226190D02*
X185452380Y-94226190D01*
X185595238Y-94321428D01*
X185690476Y-94416666D01*
X185738095Y-94511904D01*
X185452380Y-93083333D02*
X185452380Y-93273809D01*
X185500000Y-93369047D01*
X185547619Y-93416666D01*
X185690476Y-93511904D01*
X185880952Y-93559523D01*
X186261904Y-93559523D01*
X186357142Y-93511904D01*
X186404761Y-93464285D01*
X186452380Y-93369047D01*
X186452380Y-93178571D01*
X186404761Y-93083333D01*
X186357142Y-93035714D01*
X186261904Y-92988095D01*
X186023809Y-92988095D01*
X185928571Y-93035714D01*
X185880952Y-93083333D01*
X185833333Y-93178571D01*
X185833333Y-93369047D01*
X185880952Y-93464285D01*
X185928571Y-93511904D01*
X186023809Y-93559523D01*
G04 #@! TO.C,C17*
X161857142Y-100857142D02*
X161809523Y-100904761D01*
X161666666Y-100952380D01*
X161571428Y-100952380D01*
X161428571Y-100904761D01*
X161333333Y-100809523D01*
X161285714Y-100714285D01*
X161238095Y-100523809D01*
X161238095Y-100380952D01*
X161285714Y-100190476D01*
X161333333Y-100095238D01*
X161428571Y-100000000D01*
X161571428Y-99952380D01*
X161666666Y-99952380D01*
X161809523Y-100000000D01*
X161857142Y-100047619D01*
X162809523Y-100952380D02*
X162238095Y-100952380D01*
X162523809Y-100952380D02*
X162523809Y-99952380D01*
X162428571Y-100095238D01*
X162333333Y-100190476D01*
X162238095Y-100238095D01*
X163142857Y-99952380D02*
X163809523Y-99952380D01*
X163380952Y-100952380D01*
G04 #@! TO.C,C18*
X159407142Y-110807142D02*
X159359523Y-110854761D01*
X159216666Y-110902380D01*
X159121428Y-110902380D01*
X158978571Y-110854761D01*
X158883333Y-110759523D01*
X158835714Y-110664285D01*
X158788095Y-110473809D01*
X158788095Y-110330952D01*
X158835714Y-110140476D01*
X158883333Y-110045238D01*
X158978571Y-109950000D01*
X159121428Y-109902380D01*
X159216666Y-109902380D01*
X159359523Y-109950000D01*
X159407142Y-109997619D01*
X160359523Y-110902380D02*
X159788095Y-110902380D01*
X160073809Y-110902380D02*
X160073809Y-109902380D01*
X159978571Y-110045238D01*
X159883333Y-110140476D01*
X159788095Y-110188095D01*
X160930952Y-110330952D02*
X160835714Y-110283333D01*
X160788095Y-110235714D01*
X160740476Y-110140476D01*
X160740476Y-110092857D01*
X160788095Y-109997619D01*
X160835714Y-109950000D01*
X160930952Y-109902380D01*
X161121428Y-109902380D01*
X161216666Y-109950000D01*
X161264285Y-109997619D01*
X161311904Y-110092857D01*
X161311904Y-110140476D01*
X161264285Y-110235714D01*
X161216666Y-110283333D01*
X161121428Y-110330952D01*
X160930952Y-110330952D01*
X160835714Y-110378571D01*
X160788095Y-110426190D01*
X160740476Y-110521428D01*
X160740476Y-110711904D01*
X160788095Y-110807142D01*
X160835714Y-110854761D01*
X160930952Y-110902380D01*
X161121428Y-110902380D01*
X161216666Y-110854761D01*
X161264285Y-110807142D01*
X161311904Y-110711904D01*
X161311904Y-110521428D01*
X161264285Y-110426190D01*
X161216666Y-110378571D01*
X161121428Y-110330952D01*
G04 #@! TO.C,C19*
X167607142Y-104607142D02*
X167559523Y-104654761D01*
X167416666Y-104702380D01*
X167321428Y-104702380D01*
X167178571Y-104654761D01*
X167083333Y-104559523D01*
X167035714Y-104464285D01*
X166988095Y-104273809D01*
X166988095Y-104130952D01*
X167035714Y-103940476D01*
X167083333Y-103845238D01*
X167178571Y-103750000D01*
X167321428Y-103702380D01*
X167416666Y-103702380D01*
X167559523Y-103750000D01*
X167607142Y-103797619D01*
X168559523Y-104702380D02*
X167988095Y-104702380D01*
X168273809Y-104702380D02*
X168273809Y-103702380D01*
X168178571Y-103845238D01*
X168083333Y-103940476D01*
X167988095Y-103988095D01*
X169035714Y-104702380D02*
X169226190Y-104702380D01*
X169321428Y-104654761D01*
X169369047Y-104607142D01*
X169464285Y-104464285D01*
X169511904Y-104273809D01*
X169511904Y-103892857D01*
X169464285Y-103797619D01*
X169416666Y-103750000D01*
X169321428Y-103702380D01*
X169130952Y-103702380D01*
X169035714Y-103750000D01*
X168988095Y-103797619D01*
X168940476Y-103892857D01*
X168940476Y-104130952D01*
X168988095Y-104226190D01*
X169035714Y-104273809D01*
X169130952Y-104321428D01*
X169321428Y-104321428D01*
X169416666Y-104273809D01*
X169464285Y-104226190D01*
X169511904Y-104130952D01*
G04 #@! TO.C,C20*
X172857142Y-102642857D02*
X172904761Y-102690476D01*
X172952380Y-102833333D01*
X172952380Y-102928571D01*
X172904761Y-103071428D01*
X172809523Y-103166666D01*
X172714285Y-103214285D01*
X172523809Y-103261904D01*
X172380952Y-103261904D01*
X172190476Y-103214285D01*
X172095238Y-103166666D01*
X172000000Y-103071428D01*
X171952380Y-102928571D01*
X171952380Y-102833333D01*
X172000000Y-102690476D01*
X172047619Y-102642857D01*
X172047619Y-102261904D02*
X172000000Y-102214285D01*
X171952380Y-102119047D01*
X171952380Y-101880952D01*
X172000000Y-101785714D01*
X172047619Y-101738095D01*
X172142857Y-101690476D01*
X172238095Y-101690476D01*
X172380952Y-101738095D01*
X172952380Y-102309523D01*
X172952380Y-101690476D01*
X171952380Y-101071428D02*
X171952380Y-100976190D01*
X172000000Y-100880952D01*
X172047619Y-100833333D01*
X172142857Y-100785714D01*
X172333333Y-100738095D01*
X172571428Y-100738095D01*
X172761904Y-100785714D01*
X172857142Y-100833333D01*
X172904761Y-100880952D01*
X172952380Y-100976190D01*
X172952380Y-101071428D01*
X172904761Y-101166666D01*
X172857142Y-101214285D01*
X172761904Y-101261904D01*
X172571428Y-101309523D01*
X172333333Y-101309523D01*
X172142857Y-101261904D01*
X172047619Y-101214285D01*
X172000000Y-101166666D01*
X171952380Y-101071428D01*
G04 #@! TO.C,C21*
X189107142Y-111142857D02*
X189154761Y-111190476D01*
X189202380Y-111333333D01*
X189202380Y-111428571D01*
X189154761Y-111571428D01*
X189059523Y-111666666D01*
X188964285Y-111714285D01*
X188773809Y-111761904D01*
X188630952Y-111761904D01*
X188440476Y-111714285D01*
X188345238Y-111666666D01*
X188250000Y-111571428D01*
X188202380Y-111428571D01*
X188202380Y-111333333D01*
X188250000Y-111190476D01*
X188297619Y-111142857D01*
X188297619Y-110761904D02*
X188250000Y-110714285D01*
X188202380Y-110619047D01*
X188202380Y-110380952D01*
X188250000Y-110285714D01*
X188297619Y-110238095D01*
X188392857Y-110190476D01*
X188488095Y-110190476D01*
X188630952Y-110238095D01*
X189202380Y-110809523D01*
X189202380Y-110190476D01*
X189202380Y-109238095D02*
X189202380Y-109809523D01*
X189202380Y-109523809D02*
X188202380Y-109523809D01*
X188345238Y-109619047D01*
X188440476Y-109714285D01*
X188488095Y-109809523D01*
G04 #@! TO.C,C22*
X180357142Y-111642857D02*
X180404761Y-111690476D01*
X180452380Y-111833333D01*
X180452380Y-111928571D01*
X180404761Y-112071428D01*
X180309523Y-112166666D01*
X180214285Y-112214285D01*
X180023809Y-112261904D01*
X179880952Y-112261904D01*
X179690476Y-112214285D01*
X179595238Y-112166666D01*
X179500000Y-112071428D01*
X179452380Y-111928571D01*
X179452380Y-111833333D01*
X179500000Y-111690476D01*
X179547619Y-111642857D01*
X179547619Y-111261904D02*
X179500000Y-111214285D01*
X179452380Y-111119047D01*
X179452380Y-110880952D01*
X179500000Y-110785714D01*
X179547619Y-110738095D01*
X179642857Y-110690476D01*
X179738095Y-110690476D01*
X179880952Y-110738095D01*
X180452380Y-111309523D01*
X180452380Y-110690476D01*
X179547619Y-110309523D02*
X179500000Y-110261904D01*
X179452380Y-110166666D01*
X179452380Y-109928571D01*
X179500000Y-109833333D01*
X179547619Y-109785714D01*
X179642857Y-109738095D01*
X179738095Y-109738095D01*
X179880952Y-109785714D01*
X180452380Y-110357142D01*
X180452380Y-109738095D01*
G04 #@! TO.C,C23*
X182607142Y-111642857D02*
X182654761Y-111690476D01*
X182702380Y-111833333D01*
X182702380Y-111928571D01*
X182654761Y-112071428D01*
X182559523Y-112166666D01*
X182464285Y-112214285D01*
X182273809Y-112261904D01*
X182130952Y-112261904D01*
X181940476Y-112214285D01*
X181845238Y-112166666D01*
X181750000Y-112071428D01*
X181702380Y-111928571D01*
X181702380Y-111833333D01*
X181750000Y-111690476D01*
X181797619Y-111642857D01*
X181797619Y-111261904D02*
X181750000Y-111214285D01*
X181702380Y-111119047D01*
X181702380Y-110880952D01*
X181750000Y-110785714D01*
X181797619Y-110738095D01*
X181892857Y-110690476D01*
X181988095Y-110690476D01*
X182130952Y-110738095D01*
X182702380Y-111309523D01*
X182702380Y-110690476D01*
X181702380Y-110357142D02*
X181702380Y-109738095D01*
X182083333Y-110071428D01*
X182083333Y-109928571D01*
X182130952Y-109833333D01*
X182178571Y-109785714D01*
X182273809Y-109738095D01*
X182511904Y-109738095D01*
X182607142Y-109785714D01*
X182654761Y-109833333D01*
X182702380Y-109928571D01*
X182702380Y-110214285D01*
X182654761Y-110309523D01*
X182607142Y-110357142D01*
G04 #@! TO.C,C24*
X160127142Y-88942857D02*
X160174761Y-88990476D01*
X160222380Y-89133333D01*
X160222380Y-89228571D01*
X160174761Y-89371428D01*
X160079523Y-89466666D01*
X159984285Y-89514285D01*
X159793809Y-89561904D01*
X159650952Y-89561904D01*
X159460476Y-89514285D01*
X159365238Y-89466666D01*
X159270000Y-89371428D01*
X159222380Y-89228571D01*
X159222380Y-89133333D01*
X159270000Y-88990476D01*
X159317619Y-88942857D01*
X159317619Y-88561904D02*
X159270000Y-88514285D01*
X159222380Y-88419047D01*
X159222380Y-88180952D01*
X159270000Y-88085714D01*
X159317619Y-88038095D01*
X159412857Y-87990476D01*
X159508095Y-87990476D01*
X159650952Y-88038095D01*
X160222380Y-88609523D01*
X160222380Y-87990476D01*
X159555714Y-87133333D02*
X160222380Y-87133333D01*
X159174761Y-87371428D02*
X159889047Y-87609523D01*
X159889047Y-86990476D01*
G04 #@! TO.C,C25*
X185607142Y-79892857D02*
X185654761Y-79940476D01*
X185702380Y-80083333D01*
X185702380Y-80178571D01*
X185654761Y-80321428D01*
X185559523Y-80416666D01*
X185464285Y-80464285D01*
X185273809Y-80511904D01*
X185130952Y-80511904D01*
X184940476Y-80464285D01*
X184845238Y-80416666D01*
X184750000Y-80321428D01*
X184702380Y-80178571D01*
X184702380Y-80083333D01*
X184750000Y-79940476D01*
X184797619Y-79892857D01*
X184797619Y-79511904D02*
X184750000Y-79464285D01*
X184702380Y-79369047D01*
X184702380Y-79130952D01*
X184750000Y-79035714D01*
X184797619Y-78988095D01*
X184892857Y-78940476D01*
X184988095Y-78940476D01*
X185130952Y-78988095D01*
X185702380Y-79559523D01*
X185702380Y-78940476D01*
X184702380Y-78035714D02*
X184702380Y-78511904D01*
X185178571Y-78559523D01*
X185130952Y-78511904D01*
X185083333Y-78416666D01*
X185083333Y-78178571D01*
X185130952Y-78083333D01*
X185178571Y-78035714D01*
X185273809Y-77988095D01*
X185511904Y-77988095D01*
X185607142Y-78035714D01*
X185654761Y-78083333D01*
X185702380Y-78178571D01*
X185702380Y-78416666D01*
X185654761Y-78511904D01*
X185607142Y-78559523D01*
G04 #@! TO.C,C26*
X177607142Y-99607142D02*
X177559523Y-99654761D01*
X177416666Y-99702380D01*
X177321428Y-99702380D01*
X177178571Y-99654761D01*
X177083333Y-99559523D01*
X177035714Y-99464285D01*
X176988095Y-99273809D01*
X176988095Y-99130952D01*
X177035714Y-98940476D01*
X177083333Y-98845238D01*
X177178571Y-98750000D01*
X177321428Y-98702380D01*
X177416666Y-98702380D01*
X177559523Y-98750000D01*
X177607142Y-98797619D01*
X177988095Y-98797619D02*
X178035714Y-98750000D01*
X178130952Y-98702380D01*
X178369047Y-98702380D01*
X178464285Y-98750000D01*
X178511904Y-98797619D01*
X178559523Y-98892857D01*
X178559523Y-98988095D01*
X178511904Y-99130952D01*
X177940476Y-99702380D01*
X178559523Y-99702380D01*
X179416666Y-98702380D02*
X179226190Y-98702380D01*
X179130952Y-98750000D01*
X179083333Y-98797619D01*
X178988095Y-98940476D01*
X178940476Y-99130952D01*
X178940476Y-99511904D01*
X178988095Y-99607142D01*
X179035714Y-99654761D01*
X179130952Y-99702380D01*
X179321428Y-99702380D01*
X179416666Y-99654761D01*
X179464285Y-99607142D01*
X179511904Y-99511904D01*
X179511904Y-99273809D01*
X179464285Y-99178571D01*
X179416666Y-99130952D01*
X179321428Y-99083333D01*
X179130952Y-99083333D01*
X179035714Y-99130952D01*
X178988095Y-99178571D01*
X178940476Y-99273809D01*
G04 #@! TO.C,J1*
X161166666Y-113962380D02*
X161166666Y-114676666D01*
X161119047Y-114819523D01*
X161023809Y-114914761D01*
X160880952Y-114962380D01*
X160785714Y-114962380D01*
X162166666Y-114962380D02*
X161595238Y-114962380D01*
X161880952Y-114962380D02*
X161880952Y-113962380D01*
X161785714Y-114105238D01*
X161690476Y-114200476D01*
X161595238Y-114248095D01*
G04 #@! TO.C,J3*
X184666666Y-91282380D02*
X184666666Y-91996666D01*
X184619047Y-92139523D01*
X184523809Y-92234761D01*
X184380952Y-92282380D01*
X184285714Y-92282380D01*
X185047619Y-91282380D02*
X185666666Y-91282380D01*
X185333333Y-91663333D01*
X185476190Y-91663333D01*
X185571428Y-91710952D01*
X185619047Y-91758571D01*
X185666666Y-91853809D01*
X185666666Y-92091904D01*
X185619047Y-92187142D01*
X185571428Y-92234761D01*
X185476190Y-92282380D01*
X185190476Y-92282380D01*
X185095238Y-92234761D01*
X185047619Y-92187142D01*
G04 #@! TO.C,J4*
X188822380Y-102333333D02*
X189536666Y-102333333D01*
X189679523Y-102380952D01*
X189774761Y-102476190D01*
X189822380Y-102619047D01*
X189822380Y-102714285D01*
X189155714Y-101428571D02*
X189822380Y-101428571D01*
X188774761Y-101666666D02*
X189489047Y-101904761D01*
X189489047Y-101285714D01*
G04 #@! TO.C,J5*
X155622380Y-106583333D02*
X156336666Y-106583333D01*
X156479523Y-106630952D01*
X156574761Y-106726190D01*
X156622380Y-106869047D01*
X156622380Y-106964285D01*
X155622380Y-105630952D02*
X155622380Y-106107142D01*
X156098571Y-106154761D01*
X156050952Y-106107142D01*
X156003333Y-106011904D01*
X156003333Y-105773809D01*
X156050952Y-105678571D01*
X156098571Y-105630952D01*
X156193809Y-105583333D01*
X156431904Y-105583333D01*
X156527142Y-105630952D01*
X156574761Y-105678571D01*
X156622380Y-105773809D01*
X156622380Y-106011904D01*
X156574761Y-106107142D01*
X156527142Y-106154761D01*
G04 #@! TO.C,L1*
X185502380Y-91666666D02*
X185502380Y-92142857D01*
X184502380Y-92142857D01*
X185502380Y-90809523D02*
X185502380Y-91380952D01*
X185502380Y-91095238D02*
X184502380Y-91095238D01*
X184645238Y-91190476D01*
X184740476Y-91285714D01*
X184788095Y-91380952D01*
G04 #@! TO.C,R1*
X168402380Y-110916666D02*
X167926190Y-111250000D01*
X168402380Y-111488095D02*
X167402380Y-111488095D01*
X167402380Y-111107142D01*
X167450000Y-111011904D01*
X167497619Y-110964285D01*
X167592857Y-110916666D01*
X167735714Y-110916666D01*
X167830952Y-110964285D01*
X167878571Y-111011904D01*
X167926190Y-111107142D01*
X167926190Y-111488095D01*
X168402380Y-109964285D02*
X168402380Y-110535714D01*
X168402380Y-110250000D02*
X167402380Y-110250000D01*
X167545238Y-110345238D01*
X167640476Y-110440476D01*
X167688095Y-110535714D01*
G04 #@! TO.C,R2*
X166652380Y-109916666D02*
X166176190Y-110250000D01*
X166652380Y-110488095D02*
X165652380Y-110488095D01*
X165652380Y-110107142D01*
X165700000Y-110011904D01*
X165747619Y-109964285D01*
X165842857Y-109916666D01*
X165985714Y-109916666D01*
X166080952Y-109964285D01*
X166128571Y-110011904D01*
X166176190Y-110107142D01*
X166176190Y-110488095D01*
X165747619Y-109535714D02*
X165700000Y-109488095D01*
X165652380Y-109392857D01*
X165652380Y-109154761D01*
X165700000Y-109059523D01*
X165747619Y-109011904D01*
X165842857Y-108964285D01*
X165938095Y-108964285D01*
X166080952Y-109011904D01*
X166652380Y-109583333D01*
X166652380Y-108964285D01*
G04 #@! TO.C,R3*
X168583333Y-114152380D02*
X168250000Y-113676190D01*
X168011904Y-114152380D02*
X168011904Y-113152380D01*
X168392857Y-113152380D01*
X168488095Y-113200000D01*
X168535714Y-113247619D01*
X168583333Y-113342857D01*
X168583333Y-113485714D01*
X168535714Y-113580952D01*
X168488095Y-113628571D01*
X168392857Y-113676190D01*
X168011904Y-113676190D01*
X168916666Y-113152380D02*
X169535714Y-113152380D01*
X169202380Y-113533333D01*
X169345238Y-113533333D01*
X169440476Y-113580952D01*
X169488095Y-113628571D01*
X169535714Y-113723809D01*
X169535714Y-113961904D01*
X169488095Y-114057142D01*
X169440476Y-114104761D01*
X169345238Y-114152380D01*
X169059523Y-114152380D01*
X168964285Y-114104761D01*
X168916666Y-114057142D01*
G04 #@! TO.C,R4*
X172833333Y-112252380D02*
X172500000Y-111776190D01*
X172261904Y-112252380D02*
X172261904Y-111252380D01*
X172642857Y-111252380D01*
X172738095Y-111300000D01*
X172785714Y-111347619D01*
X172833333Y-111442857D01*
X172833333Y-111585714D01*
X172785714Y-111680952D01*
X172738095Y-111728571D01*
X172642857Y-111776190D01*
X172261904Y-111776190D01*
X173690476Y-111585714D02*
X173690476Y-112252380D01*
X173452380Y-111204761D02*
X173214285Y-111919047D01*
X173833333Y-111919047D01*
G04 #@! TO.C,R5*
X171583333Y-116652380D02*
X171250000Y-116176190D01*
X171011904Y-116652380D02*
X171011904Y-115652380D01*
X171392857Y-115652380D01*
X171488095Y-115700000D01*
X171535714Y-115747619D01*
X171583333Y-115842857D01*
X171583333Y-115985714D01*
X171535714Y-116080952D01*
X171488095Y-116128571D01*
X171392857Y-116176190D01*
X171011904Y-116176190D01*
X172488095Y-115652380D02*
X172011904Y-115652380D01*
X171964285Y-116128571D01*
X172011904Y-116080952D01*
X172107142Y-116033333D01*
X172345238Y-116033333D01*
X172440476Y-116080952D01*
X172488095Y-116128571D01*
X172535714Y-116223809D01*
X172535714Y-116461904D01*
X172488095Y-116557142D01*
X172440476Y-116604761D01*
X172345238Y-116652380D01*
X172107142Y-116652380D01*
X172011904Y-116604761D01*
X171964285Y-116557142D01*
G04 #@! TO.C,R6*
X176902380Y-114166666D02*
X176426190Y-114500000D01*
X176902380Y-114738095D02*
X175902380Y-114738095D01*
X175902380Y-114357142D01*
X175950000Y-114261904D01*
X175997619Y-114214285D01*
X176092857Y-114166666D01*
X176235714Y-114166666D01*
X176330952Y-114214285D01*
X176378571Y-114261904D01*
X176426190Y-114357142D01*
X176426190Y-114738095D01*
X175902380Y-113309523D02*
X175902380Y-113500000D01*
X175950000Y-113595238D01*
X175997619Y-113642857D01*
X176140476Y-113738095D01*
X176330952Y-113785714D01*
X176711904Y-113785714D01*
X176807142Y-113738095D01*
X176854761Y-113690476D01*
X176902380Y-113595238D01*
X176902380Y-113404761D01*
X176854761Y-113309523D01*
X176807142Y-113261904D01*
X176711904Y-113214285D01*
X176473809Y-113214285D01*
X176378571Y-113261904D01*
X176330952Y-113309523D01*
X176283333Y-113404761D01*
X176283333Y-113595238D01*
X176330952Y-113690476D01*
X176378571Y-113738095D01*
X176473809Y-113785714D01*
G04 #@! TO.C,TS1*
X173007380Y-112738095D02*
X173007380Y-112166666D01*
X174007380Y-112452380D02*
X173007380Y-112452380D01*
X173959761Y-111880952D02*
X174007380Y-111738095D01*
X174007380Y-111500000D01*
X173959761Y-111404761D01*
X173912142Y-111357142D01*
X173816904Y-111309523D01*
X173721666Y-111309523D01*
X173626428Y-111357142D01*
X173578809Y-111404761D01*
X173531190Y-111500000D01*
X173483571Y-111690476D01*
X173435952Y-111785714D01*
X173388333Y-111833333D01*
X173293095Y-111880952D01*
X173197857Y-111880952D01*
X173102619Y-111833333D01*
X173055000Y-111785714D01*
X173007380Y-111690476D01*
X173007380Y-111452380D01*
X173055000Y-111309523D01*
X174007380Y-110357142D02*
X174007380Y-110928571D01*
X174007380Y-110642857D02*
X173007380Y-110642857D01*
X173150238Y-110738095D01*
X173245476Y-110833333D01*
X173293095Y-110928571D01*
G04 #@! TO.C,U2*
X185002380Y-98011904D02*
X185811904Y-98011904D01*
X185907142Y-97964285D01*
X185954761Y-97916666D01*
X186002380Y-97821428D01*
X186002380Y-97630952D01*
X185954761Y-97535714D01*
X185907142Y-97488095D01*
X185811904Y-97440476D01*
X185002380Y-97440476D01*
X185097619Y-97011904D02*
X185050000Y-96964285D01*
X185002380Y-96869047D01*
X185002380Y-96630952D01*
X185050000Y-96535714D01*
X185097619Y-96488095D01*
X185192857Y-96440476D01*
X185288095Y-96440476D01*
X185430952Y-96488095D01*
X186002380Y-97059523D01*
X186002380Y-96440476D01*
G04 #@! TO.C,BT1*
X183214285Y-106658571D02*
X183357142Y-106706190D01*
X183404761Y-106753809D01*
X183452380Y-106849047D01*
X183452380Y-106991904D01*
X183404761Y-107087142D01*
X183357142Y-107134761D01*
X183261904Y-107182380D01*
X182880952Y-107182380D01*
X182880952Y-106182380D01*
X183214285Y-106182380D01*
X183309523Y-106230000D01*
X183357142Y-106277619D01*
X183404761Y-106372857D01*
X183404761Y-106468095D01*
X183357142Y-106563333D01*
X183309523Y-106610952D01*
X183214285Y-106658571D01*
X182880952Y-106658571D01*
X183738095Y-106182380D02*
X184309523Y-106182380D01*
X184023809Y-107182380D02*
X184023809Y-106182380D01*
X185166666Y-107182380D02*
X184595238Y-107182380D01*
X184880952Y-107182380D02*
X184880952Y-106182380D01*
X184785714Y-106325238D01*
X184690476Y-106420476D01*
X184595238Y-106468095D01*
G04 #@! TO.C,L2*
X175833333Y-99702380D02*
X175357142Y-99702380D01*
X175357142Y-98702380D01*
X176119047Y-98797619D02*
X176166666Y-98750000D01*
X176261904Y-98702380D01*
X176500000Y-98702380D01*
X176595238Y-98750000D01*
X176642857Y-98797619D01*
X176690476Y-98892857D01*
X176690476Y-98988095D01*
X176642857Y-99130952D01*
X176071428Y-99702380D01*
X176690476Y-99702380D01*
G04 #@! TO.C,C28*
X174267143Y-108117856D02*
X174314762Y-108165475D01*
X174362381Y-108308332D01*
X174362381Y-108403570D01*
X174314762Y-108546427D01*
X174219524Y-108641665D01*
X174124286Y-108689284D01*
X173933810Y-108736903D01*
X173790953Y-108736903D01*
X173600477Y-108689284D01*
X173505239Y-108641665D01*
X173410001Y-108546427D01*
X173362381Y-108403570D01*
X173362381Y-108308332D01*
X173410001Y-108165475D01*
X173457620Y-108117856D01*
X173457620Y-107736903D02*
X173410001Y-107689284D01*
X173362381Y-107594046D01*
X173362381Y-107355951D01*
X173410001Y-107260713D01*
X173457620Y-107213094D01*
X173552858Y-107165475D01*
X173648096Y-107165475D01*
X173790953Y-107213094D01*
X174362381Y-107784522D01*
X174362381Y-107165475D01*
X173790953Y-106594046D02*
X173743334Y-106689284D01*
X173695715Y-106736903D01*
X173600477Y-106784522D01*
X173552858Y-106784522D01*
X173457620Y-106736903D01*
X173410001Y-106689284D01*
X173362381Y-106594046D01*
X173362381Y-106403570D01*
X173410001Y-106308332D01*
X173457620Y-106260713D01*
X173552858Y-106213094D01*
X173600477Y-106213094D01*
X173695715Y-106260713D01*
X173743334Y-106308332D01*
X173790953Y-106403570D01*
X173790953Y-106594046D01*
X173838572Y-106689284D01*
X173886191Y-106736903D01*
X173981429Y-106784522D01*
X174171905Y-106784522D01*
X174267143Y-106736903D01*
X174314762Y-106689284D01*
X174362381Y-106594046D01*
X174362381Y-106403570D01*
X174314762Y-106308332D01*
X174267143Y-106260713D01*
X174171905Y-106213094D01*
X173981429Y-106213094D01*
X173886191Y-106260713D01*
X173838572Y-106308332D01*
X173790953Y-106403570D01*
G04 #@! TO.C,C29*
X176087143Y-108117856D02*
X176134762Y-108165475D01*
X176182381Y-108308332D01*
X176182381Y-108403570D01*
X176134762Y-108546427D01*
X176039524Y-108641665D01*
X175944286Y-108689284D01*
X175753810Y-108736903D01*
X175610953Y-108736903D01*
X175420477Y-108689284D01*
X175325239Y-108641665D01*
X175230001Y-108546427D01*
X175182381Y-108403570D01*
X175182381Y-108308332D01*
X175230001Y-108165475D01*
X175277620Y-108117856D01*
X175277620Y-107736903D02*
X175230001Y-107689284D01*
X175182381Y-107594046D01*
X175182381Y-107355951D01*
X175230001Y-107260713D01*
X175277620Y-107213094D01*
X175372858Y-107165475D01*
X175468096Y-107165475D01*
X175610953Y-107213094D01*
X176182381Y-107784522D01*
X176182381Y-107165475D01*
X176182381Y-106689284D02*
X176182381Y-106498808D01*
X176134762Y-106403570D01*
X176087143Y-106355951D01*
X175944286Y-106260713D01*
X175753810Y-106213094D01*
X175372858Y-106213094D01*
X175277620Y-106260713D01*
X175230001Y-106308332D01*
X175182381Y-106403570D01*
X175182381Y-106594046D01*
X175230001Y-106689284D01*
X175277620Y-106736903D01*
X175372858Y-106784522D01*
X175610953Y-106784522D01*
X175706191Y-106736903D01*
X175753810Y-106689284D01*
X175801429Y-106594046D01*
X175801429Y-106403570D01*
X175753810Y-106308332D01*
X175706191Y-106260713D01*
X175610953Y-106213094D01*
G04 #@! TO.C,J2*
X156666666Y-85487380D02*
X156666666Y-86201666D01*
X156619047Y-86344523D01*
X156523809Y-86439761D01*
X156380952Y-86487380D01*
X156285714Y-86487380D01*
X157095238Y-85582619D02*
X157142857Y-85535000D01*
X157238095Y-85487380D01*
X157476190Y-85487380D01*
X157571428Y-85535000D01*
X157619047Y-85582619D01*
X157666666Y-85677857D01*
X157666666Y-85773095D01*
X157619047Y-85915952D01*
X157047619Y-86487380D01*
X157666666Y-86487380D01*
G04 #@! TO.C,C31*
X152357142Y-75107142D02*
X152309523Y-75154761D01*
X152166666Y-75202380D01*
X152071428Y-75202380D01*
X151928571Y-75154761D01*
X151833333Y-75059523D01*
X151785714Y-74964285D01*
X151738095Y-74773809D01*
X151738095Y-74630952D01*
X151785714Y-74440476D01*
X151833333Y-74345238D01*
X151928571Y-74250000D01*
X152071428Y-74202380D01*
X152166666Y-74202380D01*
X152309523Y-74250000D01*
X152357142Y-74297619D01*
X152690476Y-74202380D02*
X153309523Y-74202380D01*
X152976190Y-74583333D01*
X153119047Y-74583333D01*
X153214285Y-74630952D01*
X153261904Y-74678571D01*
X153309523Y-74773809D01*
X153309523Y-75011904D01*
X153261904Y-75107142D01*
X153214285Y-75154761D01*
X153119047Y-75202380D01*
X152833333Y-75202380D01*
X152738095Y-75154761D01*
X152690476Y-75107142D01*
X154261904Y-75202380D02*
X153690476Y-75202380D01*
X153976190Y-75202380D02*
X153976190Y-74202380D01*
X153880952Y-74345238D01*
X153785714Y-74440476D01*
X153690476Y-74488095D01*
G04 #@! TO.C,C32*
X151357142Y-85857142D02*
X151309523Y-85904761D01*
X151166666Y-85952380D01*
X151071428Y-85952380D01*
X150928571Y-85904761D01*
X150833333Y-85809523D01*
X150785714Y-85714285D01*
X150738095Y-85523809D01*
X150738095Y-85380952D01*
X150785714Y-85190476D01*
X150833333Y-85095238D01*
X150928571Y-85000000D01*
X151071428Y-84952380D01*
X151166666Y-84952380D01*
X151309523Y-85000000D01*
X151357142Y-85047619D01*
X151690476Y-84952380D02*
X152309523Y-84952380D01*
X151976190Y-85333333D01*
X152119047Y-85333333D01*
X152214285Y-85380952D01*
X152261904Y-85428571D01*
X152309523Y-85523809D01*
X152309523Y-85761904D01*
X152261904Y-85857142D01*
X152214285Y-85904761D01*
X152119047Y-85952380D01*
X151833333Y-85952380D01*
X151738095Y-85904761D01*
X151690476Y-85857142D01*
X152690476Y-85047619D02*
X152738095Y-85000000D01*
X152833333Y-84952380D01*
X153071428Y-84952380D01*
X153166666Y-85000000D01*
X153214285Y-85047619D01*
X153261904Y-85142857D01*
X153261904Y-85238095D01*
X153214285Y-85380952D01*
X152642857Y-85952380D01*
X153261904Y-85952380D01*
G04 #@! TO.C,C33*
X151357142Y-85357142D02*
X151309523Y-85404761D01*
X151166666Y-85452380D01*
X151071428Y-85452380D01*
X150928571Y-85404761D01*
X150833333Y-85309523D01*
X150785714Y-85214285D01*
X150738095Y-85023809D01*
X150738095Y-84880952D01*
X150785714Y-84690476D01*
X150833333Y-84595238D01*
X150928571Y-84500000D01*
X151071428Y-84452380D01*
X151166666Y-84452380D01*
X151309523Y-84500000D01*
X151357142Y-84547619D01*
X151690476Y-84452380D02*
X152309523Y-84452380D01*
X151976190Y-84833333D01*
X152119047Y-84833333D01*
X152214285Y-84880952D01*
X152261904Y-84928571D01*
X152309523Y-85023809D01*
X152309523Y-85261904D01*
X152261904Y-85357142D01*
X152214285Y-85404761D01*
X152119047Y-85452380D01*
X151833333Y-85452380D01*
X151738095Y-85404761D01*
X151690476Y-85357142D01*
X152642857Y-84452380D02*
X153261904Y-84452380D01*
X152928571Y-84833333D01*
X153071428Y-84833333D01*
X153166666Y-84880952D01*
X153214285Y-84928571D01*
X153261904Y-85023809D01*
X153261904Y-85261904D01*
X153214285Y-85357142D01*
X153166666Y-85404761D01*
X153071428Y-85452380D01*
X152785714Y-85452380D01*
X152690476Y-85404761D01*
X152642857Y-85357142D01*
G04 #@! TO.C,R8*
X149002380Y-72666666D02*
X148526190Y-73000000D01*
X149002380Y-73238095D02*
X148002380Y-73238095D01*
X148002380Y-72857142D01*
X148050000Y-72761904D01*
X148097619Y-72714285D01*
X148192857Y-72666666D01*
X148335714Y-72666666D01*
X148430952Y-72714285D01*
X148478571Y-72761904D01*
X148526190Y-72857142D01*
X148526190Y-73238095D01*
X148430952Y-72095238D02*
X148383333Y-72190476D01*
X148335714Y-72238095D01*
X148240476Y-72285714D01*
X148192857Y-72285714D01*
X148097619Y-72238095D01*
X148050000Y-72190476D01*
X148002380Y-72095238D01*
X148002380Y-71904761D01*
X148050000Y-71809523D01*
X148097619Y-71761904D01*
X148192857Y-71714285D01*
X148240476Y-71714285D01*
X148335714Y-71761904D01*
X148383333Y-71809523D01*
X148430952Y-71904761D01*
X148430952Y-72095238D01*
X148478571Y-72190476D01*
X148526190Y-72238095D01*
X148621428Y-72285714D01*
X148811904Y-72285714D01*
X148907142Y-72238095D01*
X148954761Y-72190476D01*
X149002380Y-72095238D01*
X149002380Y-71904761D01*
X148954761Y-71809523D01*
X148907142Y-71761904D01*
X148811904Y-71714285D01*
X148621428Y-71714285D01*
X148526190Y-71761904D01*
X148478571Y-71809523D01*
X148430952Y-71904761D01*
G04 #@! TO.C,R9*
X155902380Y-98166666D02*
X155426190Y-98500000D01*
X155902380Y-98738095D02*
X154902380Y-98738095D01*
X154902380Y-98357142D01*
X154950000Y-98261904D01*
X154997619Y-98214285D01*
X155092857Y-98166666D01*
X155235714Y-98166666D01*
X155330952Y-98214285D01*
X155378571Y-98261904D01*
X155426190Y-98357142D01*
X155426190Y-98738095D01*
X155902380Y-97690476D02*
X155902380Y-97500000D01*
X155854761Y-97404761D01*
X155807142Y-97357142D01*
X155664285Y-97261904D01*
X155473809Y-97214285D01*
X155092857Y-97214285D01*
X154997619Y-97261904D01*
X154950000Y-97309523D01*
X154902380Y-97404761D01*
X154902380Y-97595238D01*
X154950000Y-97690476D01*
X154997619Y-97738095D01*
X155092857Y-97785714D01*
X155330952Y-97785714D01*
X155426190Y-97738095D01*
X155473809Y-97690476D01*
X155521428Y-97595238D01*
X155521428Y-97404761D01*
X155473809Y-97309523D01*
X155426190Y-97261904D01*
X155330952Y-97214285D01*
G04 #@! TO.C,R10*
X156607142Y-85402380D02*
X156273809Y-84926190D01*
X156035714Y-85402380D02*
X156035714Y-84402380D01*
X156416666Y-84402380D01*
X156511904Y-84450000D01*
X156559523Y-84497619D01*
X156607142Y-84592857D01*
X156607142Y-84735714D01*
X156559523Y-84830952D01*
X156511904Y-84878571D01*
X156416666Y-84926190D01*
X156035714Y-84926190D01*
X157559523Y-85402380D02*
X156988095Y-85402380D01*
X157273809Y-85402380D02*
X157273809Y-84402380D01*
X157178571Y-84545238D01*
X157083333Y-84640476D01*
X156988095Y-84688095D01*
X158178571Y-84402380D02*
X158273809Y-84402380D01*
X158369047Y-84450000D01*
X158416666Y-84497619D01*
X158464285Y-84592857D01*
X158511904Y-84783333D01*
X158511904Y-85021428D01*
X158464285Y-85211904D01*
X158416666Y-85307142D01*
X158369047Y-85354761D01*
X158273809Y-85402380D01*
X158178571Y-85402380D01*
X158083333Y-85354761D01*
X158035714Y-85307142D01*
X157988095Y-85211904D01*
X157940476Y-85021428D01*
X157940476Y-84783333D01*
X157988095Y-84592857D01*
X158035714Y-84497619D01*
X158083333Y-84450000D01*
X158178571Y-84402380D01*
G04 #@! TO.C,R11*
X156607142Y-86902380D02*
X156273809Y-86426190D01*
X156035714Y-86902380D02*
X156035714Y-85902380D01*
X156416666Y-85902380D01*
X156511904Y-85950000D01*
X156559523Y-85997619D01*
X156607142Y-86092857D01*
X156607142Y-86235714D01*
X156559523Y-86330952D01*
X156511904Y-86378571D01*
X156416666Y-86426190D01*
X156035714Y-86426190D01*
X157559523Y-86902380D02*
X156988095Y-86902380D01*
X157273809Y-86902380D02*
X157273809Y-85902380D01*
X157178571Y-86045238D01*
X157083333Y-86140476D01*
X156988095Y-86188095D01*
X158511904Y-86902380D02*
X157940476Y-86902380D01*
X158226190Y-86902380D02*
X158226190Y-85902380D01*
X158130952Y-86045238D01*
X158035714Y-86140476D01*
X157940476Y-86188095D01*
G04 #@! TO.C,U5*
X155152380Y-79511904D02*
X155961904Y-79511904D01*
X156057142Y-79464285D01*
X156104761Y-79416666D01*
X156152380Y-79321428D01*
X156152380Y-79130952D01*
X156104761Y-79035714D01*
X156057142Y-78988095D01*
X155961904Y-78940476D01*
X155152380Y-78940476D01*
X155152380Y-77988095D02*
X155152380Y-78464285D01*
X155628571Y-78511904D01*
X155580952Y-78464285D01*
X155533333Y-78369047D01*
X155533333Y-78130952D01*
X155580952Y-78035714D01*
X155628571Y-77988095D01*
X155723809Y-77940476D01*
X155961904Y-77940476D01*
X156057142Y-77988095D01*
X156104761Y-78035714D01*
X156152380Y-78130952D01*
X156152380Y-78369047D01*
X156104761Y-78464285D01*
X156057142Y-78511904D01*
G04 #@! TO.C,U6*
X147752380Y-92761904D02*
X148561904Y-92761904D01*
X148657142Y-92714285D01*
X148704761Y-92666666D01*
X148752380Y-92571428D01*
X148752380Y-92380952D01*
X148704761Y-92285714D01*
X148657142Y-92238095D01*
X148561904Y-92190476D01*
X147752380Y-92190476D01*
X147752380Y-91285714D02*
X147752380Y-91476190D01*
X147800000Y-91571428D01*
X147847619Y-91619047D01*
X147990476Y-91714285D01*
X148180952Y-91761904D01*
X148561904Y-91761904D01*
X148657142Y-91714285D01*
X148704761Y-91666666D01*
X148752380Y-91571428D01*
X148752380Y-91380952D01*
X148704761Y-91285714D01*
X148657142Y-91238095D01*
X148561904Y-91190476D01*
X148323809Y-91190476D01*
X148228571Y-91238095D01*
X148180952Y-91285714D01*
X148133333Y-91380952D01*
X148133333Y-91571428D01*
X148180952Y-91666666D01*
X148228571Y-91714285D01*
X148323809Y-91761904D01*
G04 #@! TO.C,C34*
X173357142Y-65642857D02*
X173404761Y-65690476D01*
X173452380Y-65833333D01*
X173452380Y-65928571D01*
X173404761Y-66071428D01*
X173309523Y-66166666D01*
X173214285Y-66214285D01*
X173023809Y-66261904D01*
X172880952Y-66261904D01*
X172690476Y-66214285D01*
X172595238Y-66166666D01*
X172500000Y-66071428D01*
X172452380Y-65928571D01*
X172452380Y-65833333D01*
X172500000Y-65690476D01*
X172547619Y-65642857D01*
X172452380Y-65309523D02*
X172452380Y-64690476D01*
X172833333Y-65023809D01*
X172833333Y-64880952D01*
X172880952Y-64785714D01*
X172928571Y-64738095D01*
X173023809Y-64690476D01*
X173261904Y-64690476D01*
X173357142Y-64738095D01*
X173404761Y-64785714D01*
X173452380Y-64880952D01*
X173452380Y-65166666D01*
X173404761Y-65261904D01*
X173357142Y-65309523D01*
X172785714Y-63833333D02*
X173452380Y-63833333D01*
X172404761Y-64071428D02*
X173119047Y-64309523D01*
X173119047Y-63690476D01*
G04 #@! TO.C,C35*
X175127142Y-64142857D02*
X175174761Y-64190476D01*
X175222380Y-64333333D01*
X175222380Y-64428571D01*
X175174761Y-64571428D01*
X175079523Y-64666666D01*
X174984285Y-64714285D01*
X174793809Y-64761904D01*
X174650952Y-64761904D01*
X174460476Y-64714285D01*
X174365238Y-64666666D01*
X174270000Y-64571428D01*
X174222380Y-64428571D01*
X174222380Y-64333333D01*
X174270000Y-64190476D01*
X174317619Y-64142857D01*
X174222380Y-63809523D02*
X174222380Y-63190476D01*
X174603333Y-63523809D01*
X174603333Y-63380952D01*
X174650952Y-63285714D01*
X174698571Y-63238095D01*
X174793809Y-63190476D01*
X175031904Y-63190476D01*
X175127142Y-63238095D01*
X175174761Y-63285714D01*
X175222380Y-63380952D01*
X175222380Y-63666666D01*
X175174761Y-63761904D01*
X175127142Y-63809523D01*
X174222380Y-62285714D02*
X174222380Y-62761904D01*
X174698571Y-62809523D01*
X174650952Y-62761904D01*
X174603333Y-62666666D01*
X174603333Y-62428571D01*
X174650952Y-62333333D01*
X174698571Y-62285714D01*
X174793809Y-62238095D01*
X175031904Y-62238095D01*
X175127142Y-62285714D01*
X175174761Y-62333333D01*
X175222380Y-62428571D01*
X175222380Y-62666666D01*
X175174761Y-62761904D01*
X175127142Y-62809523D01*
G04 #@! TO.C,J7*
X183086666Y-52912380D02*
X183086666Y-53626666D01*
X183039047Y-53769523D01*
X182943809Y-53864761D01*
X182800952Y-53912380D01*
X182705714Y-53912380D01*
X183467619Y-52912380D02*
X184134285Y-52912380D01*
X183705714Y-53912380D01*
G04 #@! TO.C,J8*
X186666666Y-76217380D02*
X186666666Y-76931666D01*
X186619047Y-77074523D01*
X186523809Y-77169761D01*
X186380952Y-77217380D01*
X186285714Y-77217380D01*
X187285714Y-76645952D02*
X187190476Y-76598333D01*
X187142857Y-76550714D01*
X187095238Y-76455476D01*
X187095238Y-76407857D01*
X187142857Y-76312619D01*
X187190476Y-76265000D01*
X187285714Y-76217380D01*
X187476190Y-76217380D01*
X187571428Y-76265000D01*
X187619047Y-76312619D01*
X187666666Y-76407857D01*
X187666666Y-76455476D01*
X187619047Y-76550714D01*
X187571428Y-76598333D01*
X187476190Y-76645952D01*
X187285714Y-76645952D01*
X187190476Y-76693571D01*
X187142857Y-76741190D01*
X187095238Y-76836428D01*
X187095238Y-77026904D01*
X187142857Y-77122142D01*
X187190476Y-77169761D01*
X187285714Y-77217380D01*
X187476190Y-77217380D01*
X187571428Y-77169761D01*
X187619047Y-77122142D01*
X187666666Y-77026904D01*
X187666666Y-76836428D01*
X187619047Y-76741190D01*
X187571428Y-76693571D01*
X187476190Y-76645952D01*
G04 #@! TO.C,U4*
X152988095Y-112852380D02*
X152988095Y-113661904D01*
X153035714Y-113757142D01*
X153083333Y-113804761D01*
X153178571Y-113852380D01*
X153369047Y-113852380D01*
X153464285Y-113804761D01*
X153511904Y-113757142D01*
X153559523Y-113661904D01*
X153559523Y-112852380D01*
X154464285Y-113185714D02*
X154464285Y-113852380D01*
X154226190Y-112804761D02*
X153988095Y-113519047D01*
X154607142Y-113519047D01*
G04 #@! TO.C,C7*
X160607142Y-76916666D02*
X160654761Y-76964285D01*
X160702380Y-77107142D01*
X160702380Y-77202380D01*
X160654761Y-77345238D01*
X160559523Y-77440476D01*
X160464285Y-77488095D01*
X160273809Y-77535714D01*
X160130952Y-77535714D01*
X159940476Y-77488095D01*
X159845238Y-77440476D01*
X159750000Y-77345238D01*
X159702380Y-77202380D01*
X159702380Y-77107142D01*
X159750000Y-76964285D01*
X159797619Y-76916666D01*
X159702380Y-76583333D02*
X159702380Y-75916666D01*
X160702380Y-76345238D01*
G04 #@! TO.C,C8*
X162837142Y-76416666D02*
X162884761Y-76464285D01*
X162932380Y-76607142D01*
X162932380Y-76702380D01*
X162884761Y-76845238D01*
X162789523Y-76940476D01*
X162694285Y-76988095D01*
X162503809Y-77035714D01*
X162360952Y-77035714D01*
X162170476Y-76988095D01*
X162075238Y-76940476D01*
X161980000Y-76845238D01*
X161932380Y-76702380D01*
X161932380Y-76607142D01*
X161980000Y-76464285D01*
X162027619Y-76416666D01*
X162360952Y-75845238D02*
X162313333Y-75940476D01*
X162265714Y-75988095D01*
X162170476Y-76035714D01*
X162122857Y-76035714D01*
X162027619Y-75988095D01*
X161980000Y-75940476D01*
X161932380Y-75845238D01*
X161932380Y-75654761D01*
X161980000Y-75559523D01*
X162027619Y-75511904D01*
X162122857Y-75464285D01*
X162170476Y-75464285D01*
X162265714Y-75511904D01*
X162313333Y-75559523D01*
X162360952Y-75654761D01*
X162360952Y-75845238D01*
X162408571Y-75940476D01*
X162456190Y-75988095D01*
X162551428Y-76035714D01*
X162741904Y-76035714D01*
X162837142Y-75988095D01*
X162884761Y-75940476D01*
X162932380Y-75845238D01*
X162932380Y-75654761D01*
X162884761Y-75559523D01*
X162837142Y-75511904D01*
X162741904Y-75464285D01*
X162551428Y-75464285D01*
X162456190Y-75511904D01*
X162408571Y-75559523D01*
X162360952Y-75654761D01*
G04 #@! TO.C,C15*
X167357142Y-71127142D02*
X167309523Y-71174761D01*
X167166666Y-71222380D01*
X167071428Y-71222380D01*
X166928571Y-71174761D01*
X166833333Y-71079523D01*
X166785714Y-70984285D01*
X166738095Y-70793809D01*
X166738095Y-70650952D01*
X166785714Y-70460476D01*
X166833333Y-70365238D01*
X166928571Y-70270000D01*
X167071428Y-70222380D01*
X167166666Y-70222380D01*
X167309523Y-70270000D01*
X167357142Y-70317619D01*
X168309523Y-71222380D02*
X167738095Y-71222380D01*
X168023809Y-71222380D02*
X168023809Y-70222380D01*
X167928571Y-70365238D01*
X167833333Y-70460476D01*
X167738095Y-70508095D01*
X169214285Y-70222380D02*
X168738095Y-70222380D01*
X168690476Y-70698571D01*
X168738095Y-70650952D01*
X168833333Y-70603333D01*
X169071428Y-70603333D01*
X169166666Y-70650952D01*
X169214285Y-70698571D01*
X169261904Y-70793809D01*
X169261904Y-71031904D01*
X169214285Y-71127142D01*
X169166666Y-71174761D01*
X169071428Y-71222380D01*
X168833333Y-71222380D01*
X168738095Y-71174761D01*
X168690476Y-71127142D01*
G04 #@! TO.C,C27*
X167357142Y-69357142D02*
X167309523Y-69404761D01*
X167166666Y-69452380D01*
X167071428Y-69452380D01*
X166928571Y-69404761D01*
X166833333Y-69309523D01*
X166785714Y-69214285D01*
X166738095Y-69023809D01*
X166738095Y-68880952D01*
X166785714Y-68690476D01*
X166833333Y-68595238D01*
X166928571Y-68500000D01*
X167071428Y-68452380D01*
X167166666Y-68452380D01*
X167309523Y-68500000D01*
X167357142Y-68547619D01*
X167738095Y-68547619D02*
X167785714Y-68500000D01*
X167880952Y-68452380D01*
X168119047Y-68452380D01*
X168214285Y-68500000D01*
X168261904Y-68547619D01*
X168309523Y-68642857D01*
X168309523Y-68738095D01*
X168261904Y-68880952D01*
X167690476Y-69452380D01*
X168309523Y-69452380D01*
X168642857Y-68452380D02*
X169309523Y-68452380D01*
X168880952Y-69452380D01*
G04 #@! TO.C,Q1*
X162404761Y-67047619D02*
X162309523Y-67000000D01*
X162214285Y-66904761D01*
X162071428Y-66761904D01*
X161976190Y-66714285D01*
X161880952Y-66714285D01*
X161928571Y-66952380D02*
X161833333Y-66904761D01*
X161738095Y-66809523D01*
X161690476Y-66619047D01*
X161690476Y-66285714D01*
X161738095Y-66095238D01*
X161833333Y-66000000D01*
X161928571Y-65952380D01*
X162119047Y-65952380D01*
X162214285Y-66000000D01*
X162309523Y-66095238D01*
X162357142Y-66285714D01*
X162357142Y-66619047D01*
X162309523Y-66809523D01*
X162214285Y-66904761D01*
X162119047Y-66952380D01*
X161928571Y-66952380D01*
X163309523Y-66952380D02*
X162738095Y-66952380D01*
X163023809Y-66952380D02*
X163023809Y-65952380D01*
X162928571Y-66095238D01*
X162833333Y-66190476D01*
X162738095Y-66238095D01*
G04 #@! TO.C,R7*
X164302380Y-70116666D02*
X163826190Y-70450000D01*
X164302380Y-70688095D02*
X163302380Y-70688095D01*
X163302380Y-70307142D01*
X163350000Y-70211904D01*
X163397619Y-70164285D01*
X163492857Y-70116666D01*
X163635714Y-70116666D01*
X163730952Y-70164285D01*
X163778571Y-70211904D01*
X163826190Y-70307142D01*
X163826190Y-70688095D01*
X163302380Y-69783333D02*
X163302380Y-69116666D01*
X164302380Y-69545238D01*
G04 #@! TO.C,C36*
X185607142Y-76142857D02*
X185654761Y-76190476D01*
X185702380Y-76333333D01*
X185702380Y-76428571D01*
X185654761Y-76571428D01*
X185559523Y-76666666D01*
X185464285Y-76714285D01*
X185273809Y-76761904D01*
X185130952Y-76761904D01*
X184940476Y-76714285D01*
X184845238Y-76666666D01*
X184750000Y-76571428D01*
X184702380Y-76428571D01*
X184702380Y-76333333D01*
X184750000Y-76190476D01*
X184797619Y-76142857D01*
X184702380Y-75809523D02*
X184702380Y-75190476D01*
X185083333Y-75523809D01*
X185083333Y-75380952D01*
X185130952Y-75285714D01*
X185178571Y-75238095D01*
X185273809Y-75190476D01*
X185511904Y-75190476D01*
X185607142Y-75238095D01*
X185654761Y-75285714D01*
X185702380Y-75380952D01*
X185702380Y-75666666D01*
X185654761Y-75761904D01*
X185607142Y-75809523D01*
X184702380Y-74333333D02*
X184702380Y-74523809D01*
X184750000Y-74619047D01*
X184797619Y-74666666D01*
X184940476Y-74761904D01*
X185130952Y-74809523D01*
X185511904Y-74809523D01*
X185607142Y-74761904D01*
X185654761Y-74714285D01*
X185702380Y-74619047D01*
X185702380Y-74428571D01*
X185654761Y-74333333D01*
X185607142Y-74285714D01*
X185511904Y-74238095D01*
X185273809Y-74238095D01*
X185178571Y-74285714D01*
X185130952Y-74333333D01*
X185083333Y-74428571D01*
X185083333Y-74619047D01*
X185130952Y-74714285D01*
X185178571Y-74761904D01*
X185273809Y-74809523D01*
G04 #@! TD*
M02*
