M48
;DRILL file {KiCad 5.0.1} date Wed 30 Jan 2019 05:33:00 PM MSK
;FORMAT={-:-/ absolute / inch / decimal}
FMAT,2
INCH,TZ
T1C0.0157
T2C0.0197
T3C0.0217
T4C0.0256
T5C0.0276
T6C0.0394
T7C0.1181
%
G90
G05
M72
T1
X5.8465Y-3.2185
X5.9252Y-3.061
X5.9843Y-2.7756
X6.0531Y-4.439
X6.1122Y-3.7402
X6.1608Y-4.4003
X6.1781Y-4.3188
X6.1811Y-3.622
X6.19Y-4.3711
X6.2065Y-3.1321
X6.2515Y-3.7417
X6.2524Y-3.1044
X6.2784Y-4.509
X6.2894Y-3.3071
X6.2918Y-3.1128
X6.3091Y-4.6358
X6.331Y-3.1085
X6.3465Y-3.4331
X6.3719Y-3.1091
X6.3783Y-3.4045
X6.437Y-2.874
X6.5157Y-2.8937
X6.5349Y-4.2613
X6.5436Y-2.8652
X6.565Y-4.4783
X6.5945Y-4.311
X6.6043Y-4.3504
X6.622Y-3.2283
X6.622Y-3.5197
X6.6437Y-4.3701
X6.6559Y-3.1187
X6.664Y-2.9029
X6.685Y-3.5039
X6.6929Y-3.1024
X6.7004Y-4.4831
X6.7028Y-4.1142
X6.7323Y-3.1024
X6.752Y-2.9724
X6.7608Y-4.4136
X6.7659Y-3.8587
X6.7717Y-2.9331
X6.8053Y-3.8576
X6.8116Y-3.1146
X6.845Y-3.843
X6.8508Y-3.1181
X6.8907Y-3.8189
X6.9291Y-3.8287
X6.9488Y-3.3071
X6.968Y-3.2672
X6.9685Y-2.5984
X6.9685Y-2.6378
X6.998Y-2.2244
X7.1555Y-3.0413
X7.2Y-3.2626
X7.2292Y-3.2334
X7.2567Y-3.2874
T2
X6.3386Y-3.8484
X6.378Y-3.8484
X6.4173Y-3.8484
X6.4567Y-3.8484
X6.4961Y-3.8484
X6.5354Y-3.8484
X6.5748Y-3.8484
X6.6142Y-3.8484
T4
X6.8996Y-4.3898
X6.9496Y-4.3898
X7.3622Y-3.089
X7.3622Y-3.139
X7.3622Y-3.189
X7.3622Y-3.239
X7.3622Y-3.289
X6.1811Y-3.4539
X6.1811Y-3.5039
T5
X5.876Y-2.687
X5.9055Y-2.7362
X5.9252Y-2.1949
X5.9547Y-4.2618
X5.9744Y-2.5787
X5.9843Y-2.3819
X6.0335Y-2.3031
X6.0335Y-2.4508
X6.0335Y-2.5295
X6.0335Y-2.6181
X6.0335Y-2.687
X6.0531Y-3.937
X6.0728Y-3.4055
X6.1516Y-4.0256
X6.2752Y-3.902
X6.3622Y-3.7165
X6.3622Y-3.9134
X6.3681Y-4.4291
X6.4567Y-4.0945
X6.4646Y-3.9291
X6.5157Y-2.6575
X6.5453Y-2.5394
X6.5748Y-2.4409
X6.6339Y-2.4902
X6.6634Y-2.4114
X6.6699Y-2.7001
X6.6831Y-2.3425
X6.7109Y-2.3917
X6.7503Y-2.3524
X6.7618Y-2.2933
X6.7717Y-2.874
X6.8012Y-2.2343
X6.8307Y-2.3228
X6.8307Y-2.5984
X6.8508Y-4.2202
X6.855Y-4.1567
X6.8898Y-3.4744
X6.9094Y-4.1339
X6.9126Y-2.884
X6.9291Y-3.902
X6.9646Y-4.1364
X6.9783Y-2.4705
X6.9783Y-4.4882
X6.998Y-2.2933
X7.0551Y-4.4094
X7.0669Y-4.4685
X7.0866Y-2.4705
X7.1063Y-3.7992
X7.1102Y-3.8484
X7.1102Y-3.9272
X7.1102Y-3.9764
X7.1102Y-4.0256
X7.1161Y-2.4311
X7.126Y-2.5197
X7.1358Y-2.8051
X7.1457Y-2.8642
X7.2047Y-3.7992
X7.2114Y-3.694
X7.2441Y-4.1417
X7.2835Y-4.1024
X7.3031Y-2.815
X7.3327Y-2.4803
T6
X7.2835Y-3.4236
X7.2835Y-3.5236
X6.2831Y-1.9685
X6.2831Y-2.0685
X6.3831Y-1.9685
X6.3831Y-2.0685
X6.4831Y-1.9685
X6.4831Y-2.0685
X6.5831Y-1.9685
X6.5831Y-2.0685
X6.6831Y-1.9685
X6.6831Y-2.0685
X6.7831Y-1.9685
X6.7831Y-2.0685
X6.8831Y-1.9685
X6.8831Y-2.0685
X6.9831Y-1.9685
X6.9831Y-2.0685
X7.0831Y-1.9685
X7.0831Y-2.0685
X7.2441Y-4.311
X7.2441Y-4.411
X7.2638Y-4.0157
X7.3638Y-4.0157
X6.2402Y-4.1831
X6.3402Y-4.1831
T7
X5.9547Y-2.0177
X5.9547Y-4.6358
X7.4016Y-2.0177
X7.4016Y-4.6358
T2
X6.2205Y-4.7018G85X6.2205Y-4.6762
G05
X6.4961Y-4.7018G85X6.4961Y-4.6762
G05
T3
X6.2539Y-4.5827G85X6.2657Y-4.5827
G05
X6.4508Y-4.5827G85X6.4626Y-4.5827
G05
T0
M30
