G04 #@! TF.GenerationSoftware,KiCad,Pcbnew,5.0.1*
G04 #@! TF.CreationDate,2019-01-30T17:32:38+03:00*
G04 #@! TF.ProjectId,core,636F72652E6B696361645F7063620000,rev?*
G04 #@! TF.SameCoordinates,Original*
G04 #@! TF.FileFunction,Paste,Top*
G04 #@! TF.FilePolarity,Positive*
%FSLAX46Y46*%
G04 Gerber Fmt 4.6, Leading zero omitted, Abs format (unit mm)*
G04 Created by KiCad (PCBNEW 5.0.1) date Wed 30 Jan 2019 05:32:38 PM MSK*
%MOMM*%
%LPD*%
G01*
G04 APERTURE LIST*
%ADD10R,0.850000X0.300000*%
%ADD11R,0.300000X0.850000*%
%ADD12R,1.500000X0.280000*%
%ADD13R,0.280000X1.500000*%
%ADD14R,1.000000X1.250000*%
%ADD15R,1.250000X1.000000*%
%ADD16R,0.500000X0.600000*%
%ADD17R,0.600000X0.500000*%
%ADD18R,1.000000X1.600000*%
%ADD19R,1.600000X1.000000*%
%ADD20R,0.400000X1.350000*%
%ADD21R,2.500000X2.000000*%
%ADD22R,0.900000X0.500000*%
%ADD23R,0.500000X0.900000*%
%ADD24R,0.650000X1.220000*%
%ADD25R,2.200000X3.900000*%
%ADD26R,1.700000X2.100000*%
%ADD27R,1.200000X0.700000*%
%ADD28R,1.200000X1.000000*%
%ADD29R,0.800000X1.000000*%
%ADD30R,2.800000X1.000000*%
%ADD31R,1.900000X1.300000*%
%ADD32R,1.060000X0.650000*%
%ADD33R,0.900000X0.800000*%
%ADD34R,1.300000X0.700000*%
G04 APERTURE END LIST*
D10*
G04 #@! TO.C,U3*
X168800000Y-107000000D03*
X168800000Y-107500000D03*
X168800000Y-108000000D03*
X168800000Y-108500000D03*
X168800000Y-109000000D03*
X168800000Y-109500000D03*
D11*
X169500000Y-110200000D03*
X170000000Y-110200000D03*
X170500000Y-110200000D03*
X171000000Y-110200000D03*
X171500000Y-110200000D03*
X172000000Y-110200000D03*
D10*
X172700000Y-109500000D03*
X172700000Y-109000000D03*
X172700000Y-108500000D03*
X172700000Y-108000000D03*
X172700000Y-107500000D03*
X172700000Y-107000000D03*
D11*
X172000000Y-106300000D03*
X171500000Y-106300000D03*
X171000000Y-106300000D03*
X170500000Y-106300000D03*
X170000000Y-106300000D03*
X169500000Y-106300000D03*
G04 #@! TD*
D12*
G04 #@! TO.C,U1*
X163850000Y-79250000D03*
X163850000Y-79750000D03*
X163850000Y-80250000D03*
X163850000Y-80750000D03*
X163850000Y-81250000D03*
X163850000Y-81750000D03*
X163850000Y-82250000D03*
X163850000Y-82750000D03*
X163850000Y-83250000D03*
X163850000Y-83750000D03*
X163850000Y-84250000D03*
X163850000Y-84750000D03*
X163850000Y-85250000D03*
X163850000Y-85750000D03*
X163850000Y-86250000D03*
X163850000Y-86750000D03*
X163850000Y-87250000D03*
X163850000Y-87750000D03*
X163850000Y-88250000D03*
X163850000Y-88750000D03*
X163850000Y-89250000D03*
X163850000Y-89750000D03*
X163850000Y-90250000D03*
X163850000Y-90750000D03*
X163850000Y-91250000D03*
D13*
X165750000Y-93150000D03*
X166250000Y-93150000D03*
X166750000Y-93150000D03*
X167250000Y-93150000D03*
X167750000Y-93150000D03*
X168250000Y-93150000D03*
X168750000Y-93150000D03*
X169250000Y-93150000D03*
X169750000Y-93150000D03*
X170250000Y-93150000D03*
X170750000Y-93150000D03*
X171250000Y-93150000D03*
X171750000Y-93150000D03*
X172250000Y-93150000D03*
X172750000Y-93150000D03*
X173250000Y-93150000D03*
X173750000Y-93150000D03*
X174250000Y-93150000D03*
X174750000Y-93150000D03*
X175250000Y-93150000D03*
X175750000Y-93150000D03*
X176250000Y-93150000D03*
X176750000Y-93150000D03*
X177250000Y-93150000D03*
X177750000Y-93150000D03*
D12*
X179650000Y-91250000D03*
X179650000Y-90750000D03*
X179650000Y-90250000D03*
X179650000Y-89750000D03*
X179650000Y-89250000D03*
X179650000Y-88750000D03*
X179650000Y-88250000D03*
X179650000Y-87750000D03*
X179650000Y-87250000D03*
X179650000Y-86750000D03*
X179650000Y-86250000D03*
X179650000Y-85750000D03*
X179650000Y-85250000D03*
X179650000Y-84750000D03*
X179650000Y-84250000D03*
X179650000Y-83750000D03*
X179650000Y-83250000D03*
X179650000Y-82750000D03*
X179650000Y-82250000D03*
X179650000Y-81750000D03*
X179650000Y-81250000D03*
X179650000Y-80750000D03*
X179650000Y-80250000D03*
X179650000Y-79750000D03*
X179650000Y-79250000D03*
D13*
X177750000Y-77350000D03*
X177250000Y-77350000D03*
X176750000Y-77350000D03*
X176250000Y-77350000D03*
X175750000Y-77350000D03*
X175250000Y-77350000D03*
X174750000Y-77350000D03*
X174250000Y-77350000D03*
X173750000Y-77350000D03*
X173250000Y-77350000D03*
X172750000Y-77350000D03*
X172250000Y-77350000D03*
X171750000Y-77350000D03*
X171250000Y-77350000D03*
X170750000Y-77350000D03*
X170250000Y-77350000D03*
X169750000Y-77350000D03*
X169250000Y-77350000D03*
X168750000Y-77350000D03*
X168250000Y-77350000D03*
X167750000Y-77350000D03*
X167250000Y-77350000D03*
X166750000Y-77350000D03*
X166250000Y-77350000D03*
X165750000Y-77350000D03*
G04 #@! TD*
D14*
G04 #@! TO.C,C30*
X150000000Y-97250000D03*
X152000000Y-97250000D03*
G04 #@! TD*
D15*
G04 #@! TO.C,C3*
X184500000Y-99250000D03*
X184500000Y-97250000D03*
G04 #@! TD*
D16*
G04 #@! TO.C,C1*
X181750000Y-78450000D03*
X181750000Y-79550000D03*
G04 #@! TD*
D15*
G04 #@! TO.C,C2*
X161750000Y-91000000D03*
X161750000Y-93000000D03*
G04 #@! TD*
D17*
G04 #@! TO.C,C4*
X163450000Y-95200000D03*
X164550000Y-95200000D03*
G04 #@! TD*
D14*
G04 #@! TO.C,C5*
X152000000Y-99500000D03*
X150000000Y-99500000D03*
G04 #@! TD*
D16*
G04 #@! TO.C,C6*
X161000000Y-84000000D03*
X161000000Y-82900000D03*
G04 #@! TD*
G04 #@! TO.C,C9*
X160000000Y-89350000D03*
X160000000Y-88250000D03*
G04 #@! TD*
G04 #@! TO.C,C10*
X159600000Y-81650000D03*
X159600000Y-82750000D03*
G04 #@! TD*
G04 #@! TO.C,C11*
X161000000Y-88650000D03*
X161000000Y-89750000D03*
G04 #@! TD*
D15*
G04 #@! TO.C,C12*
X165250000Y-106250000D03*
X165250000Y-104250000D03*
G04 #@! TD*
D17*
G04 #@! TO.C,C13*
X178150000Y-95500000D03*
X179250000Y-95500000D03*
G04 #@! TD*
D14*
G04 #@! TO.C,C14*
X166250000Y-100750000D03*
X168250000Y-100750000D03*
G04 #@! TD*
D15*
G04 #@! TO.C,C16*
X184500000Y-95250000D03*
X184500000Y-93250000D03*
G04 #@! TD*
D18*
G04 #@! TO.C,C17*
X161000000Y-102250000D03*
X164000000Y-102250000D03*
G04 #@! TD*
D14*
G04 #@! TO.C,C18*
X159050000Y-108950000D03*
X161050000Y-108950000D03*
G04 #@! TD*
G04 #@! TO.C,C19*
X167250000Y-102750000D03*
X169250000Y-102750000D03*
G04 #@! TD*
D15*
G04 #@! TO.C,C20*
X171000000Y-103000000D03*
X171000000Y-101000000D03*
G04 #@! TD*
D19*
G04 #@! TO.C,C21*
X187000000Y-112000000D03*
X187000000Y-109000000D03*
G04 #@! TD*
D15*
G04 #@! TO.C,C22*
X178500000Y-110000000D03*
X178500000Y-112000000D03*
G04 #@! TD*
D19*
G04 #@! TO.C,C23*
X180500000Y-109500000D03*
X180500000Y-112500000D03*
G04 #@! TD*
D16*
G04 #@! TO.C,C24*
X158500000Y-88850000D03*
X158500000Y-87750000D03*
G04 #@! TD*
D15*
G04 #@! TO.C,C25*
X183750000Y-80250000D03*
X183750000Y-78250000D03*
G04 #@! TD*
D14*
G04 #@! TO.C,C26*
X179250000Y-97750000D03*
X177250000Y-97750000D03*
G04 #@! TD*
D20*
G04 #@! TO.C,J1*
X160200000Y-116400000D03*
X160850000Y-116400000D03*
X161500000Y-116400000D03*
X162150000Y-116400000D03*
X162800000Y-116400000D03*
G04 #@! TD*
D21*
G04 #@! TO.C,L1*
X187750000Y-93500000D03*
X187750000Y-89500000D03*
G04 #@! TD*
D22*
G04 #@! TO.C,R1*
X166500000Y-111500000D03*
X166500000Y-110000000D03*
G04 #@! TD*
G04 #@! TO.C,R2*
X164750000Y-109000000D03*
X164750000Y-110500000D03*
G04 #@! TD*
D23*
G04 #@! TO.C,R3*
X168000000Y-112250000D03*
X169500000Y-112250000D03*
G04 #@! TD*
G04 #@! TO.C,R4*
X172250000Y-113250000D03*
X173750000Y-113250000D03*
G04 #@! TD*
G04 #@! TO.C,R5*
X171000000Y-114750000D03*
X172500000Y-114750000D03*
G04 #@! TD*
D22*
G04 #@! TO.C,R6*
X175000000Y-113250000D03*
X175000000Y-114750000D03*
G04 #@! TD*
D24*
G04 #@! TO.C,U2*
X187050000Y-98560000D03*
X188000000Y-98560000D03*
X188950000Y-98560000D03*
X188950000Y-95940000D03*
X187050000Y-95940000D03*
G04 #@! TD*
D25*
G04 #@! TO.C,L2*
X174100000Y-102250000D03*
X177900000Y-102250000D03*
G04 #@! TD*
D15*
G04 #@! TO.C,C28*
X175410001Y-106474999D03*
X175410001Y-108474999D03*
G04 #@! TD*
G04 #@! TO.C,C29*
X177230001Y-108474999D03*
X177230001Y-106474999D03*
G04 #@! TD*
D14*
G04 #@! TO.C,C31*
X152000000Y-73250000D03*
X154000000Y-73250000D03*
G04 #@! TD*
G04 #@! TO.C,C32*
X151000000Y-84000000D03*
X153000000Y-84000000D03*
G04 #@! TD*
G04 #@! TO.C,C33*
X151000000Y-86500000D03*
X153000000Y-86500000D03*
G04 #@! TD*
D22*
G04 #@! TO.C,R8*
X150000000Y-73250000D03*
X150000000Y-71750000D03*
G04 #@! TD*
G04 #@! TO.C,R9*
X154000000Y-97250000D03*
X154000000Y-98750000D03*
G04 #@! TD*
D23*
G04 #@! TO.C,R10*
X156500000Y-83500000D03*
X158000000Y-83500000D03*
G04 #@! TD*
G04 #@! TO.C,R11*
X156500000Y-85000000D03*
X158000000Y-85000000D03*
G04 #@! TD*
D26*
G04 #@! TO.C,U5*
X153350000Y-75800000D03*
X153350000Y-81700000D03*
X150650000Y-81700000D03*
X150650000Y-75800000D03*
G04 #@! TD*
G04 #@! TO.C,U6*
X153350000Y-94950000D03*
X153350000Y-89050000D03*
X150650000Y-89050000D03*
X150650000Y-94950000D03*
G04 #@! TD*
D15*
G04 #@! TO.C,C34*
X171500000Y-64000000D03*
X171500000Y-66000000D03*
G04 #@! TD*
D16*
G04 #@! TO.C,C35*
X173500000Y-62950000D03*
X173500000Y-64050000D03*
G04 #@! TD*
D27*
G04 #@! TO.C,J7*
X175450000Y-67800000D03*
X175450000Y-66850000D03*
X175450000Y-59150000D03*
X175450000Y-60250000D03*
X175450000Y-61350000D03*
X175450000Y-62450000D03*
X175450000Y-63550000D03*
X175450000Y-64650000D03*
X175450000Y-65750000D03*
D28*
X175450000Y-57600000D03*
X179750000Y-68750000D03*
D29*
X185950000Y-68750000D03*
D30*
X190100000Y-68750000D03*
D31*
X190550000Y-55250000D03*
G04 #@! TD*
D32*
G04 #@! TO.C,U4*
X154850000Y-111450000D03*
X154850000Y-110500000D03*
X154850000Y-109550000D03*
X152650000Y-109550000D03*
X152650000Y-111450000D03*
X152650000Y-110500000D03*
G04 #@! TD*
D15*
G04 #@! TO.C,C7*
X161750000Y-77750000D03*
X161750000Y-75750000D03*
G04 #@! TD*
D16*
G04 #@! TO.C,C8*
X163750000Y-75700000D03*
X163750000Y-76800000D03*
G04 #@! TD*
D17*
G04 #@! TO.C,C15*
X168550000Y-69500000D03*
X167450000Y-69500000D03*
G04 #@! TD*
D14*
G04 #@! TO.C,C27*
X167000000Y-67500000D03*
X169000000Y-67500000D03*
G04 #@! TD*
D33*
G04 #@! TO.C,Q1*
X161500000Y-68050000D03*
X161500000Y-69950000D03*
X163500000Y-69000000D03*
G04 #@! TD*
D34*
G04 #@! TO.C,R7*
X165500000Y-70900000D03*
X165500000Y-69000000D03*
G04 #@! TD*
D15*
G04 #@! TO.C,C36*
X183750000Y-74500000D03*
X183750000Y-76500000D03*
G04 #@! TD*
M02*
