G04 #@! TF.GenerationSoftware,KiCad,Pcbnew,5.0.1*
G04 #@! TF.CreationDate,2019-01-30T17:32:38+03:00*
G04 #@! TF.ProjectId,core,636F72652E6B696361645F7063620000,rev?*
G04 #@! TF.SameCoordinates,Original*
G04 #@! TF.FileFunction,Legend,Bot*
G04 #@! TF.FilePolarity,Positive*
%FSLAX46Y46*%
G04 Gerber Fmt 4.6, Leading zero omitted, Abs format (unit mm)*
G04 Created by KiCad (PCBNEW 5.0.1) date Wed 30 Jan 2019 05:32:38 PM MSK*
%MOMM*%
%LPD*%
G01*
G04 APERTURE LIST*
%ADD10C,0.300000*%
%ADD11C,0.150000*%
G04 APERTURE END LIST*
D10*
X172857142Y-81378571D02*
X173000000Y-81307142D01*
X173071428Y-81235714D01*
X173142857Y-81092857D01*
X173142857Y-80664285D01*
X173071428Y-80521428D01*
X173000000Y-80450000D01*
X172857142Y-80378571D01*
X172642857Y-80378571D01*
X172500000Y-80450000D01*
X172428571Y-80521428D01*
X172357142Y-80664285D01*
X172357142Y-81092857D01*
X172428571Y-81235714D01*
X172500000Y-81307142D01*
X172642857Y-81378571D01*
X172857142Y-81378571D01*
X171785714Y-81307142D02*
X171642857Y-81378571D01*
X171357142Y-81378571D01*
X171214285Y-81307142D01*
X171142857Y-81164285D01*
X171142857Y-81092857D01*
X171214285Y-80950000D01*
X171357142Y-80878571D01*
X171571428Y-80878571D01*
X171714285Y-80807142D01*
X171785714Y-80664285D01*
X171785714Y-80592857D01*
X171714285Y-80450000D01*
X171571428Y-80378571D01*
X171357142Y-80378571D01*
X171214285Y-80450000D01*
X170714285Y-80378571D02*
X170142857Y-80378571D01*
X170500000Y-81378571D02*
X170500000Y-80092857D01*
X170428571Y-79950000D01*
X170285714Y-79878571D01*
X170142857Y-79878571D01*
X169642857Y-81378571D02*
X169642857Y-80378571D01*
X169642857Y-79878571D02*
X169714285Y-79950000D01*
X169642857Y-80021428D01*
X169571428Y-79950000D01*
X169642857Y-79878571D01*
X169642857Y-80021428D01*
X168928571Y-80807142D02*
X167785714Y-80807142D01*
X167071428Y-80378571D02*
X167071428Y-81878571D01*
X167071428Y-80450000D02*
X166928571Y-80378571D01*
X166642857Y-80378571D01*
X166500000Y-80450000D01*
X166428571Y-80521428D01*
X166357142Y-80664285D01*
X166357142Y-81092857D01*
X166428571Y-81235714D01*
X166500000Y-81307142D01*
X166642857Y-81378571D01*
X166928571Y-81378571D01*
X167071428Y-81307142D01*
X175535714Y-82928571D02*
X175178571Y-83928571D01*
X174821428Y-82928571D01*
X173678571Y-83857142D02*
X173821428Y-83928571D01*
X174107142Y-83928571D01*
X174250000Y-83857142D01*
X174321428Y-83714285D01*
X174321428Y-83142857D01*
X174250000Y-83000000D01*
X174107142Y-82928571D01*
X173821428Y-82928571D01*
X173678571Y-83000000D01*
X173607142Y-83142857D01*
X173607142Y-83285714D01*
X174321428Y-83428571D01*
X172964285Y-83928571D02*
X172964285Y-82928571D01*
X172964285Y-83214285D02*
X172892857Y-83071428D01*
X172821428Y-83000000D01*
X172678571Y-82928571D01*
X172535714Y-82928571D01*
X172107142Y-83857142D02*
X171964285Y-83928571D01*
X171678571Y-83928571D01*
X171535714Y-83857142D01*
X171464285Y-83714285D01*
X171464285Y-83642857D01*
X171535714Y-83500000D01*
X171678571Y-83428571D01*
X171892857Y-83428571D01*
X172035714Y-83357142D01*
X172107142Y-83214285D01*
X172107142Y-83142857D01*
X172035714Y-83000000D01*
X171892857Y-82928571D01*
X171678571Y-82928571D01*
X171535714Y-83000000D01*
X170821428Y-83928571D02*
X170821428Y-82928571D01*
X170821428Y-82428571D02*
X170892857Y-82500000D01*
X170821428Y-82571428D01*
X170750000Y-82500000D01*
X170821428Y-82428571D01*
X170821428Y-82571428D01*
X169892857Y-83928571D02*
X170035714Y-83857142D01*
X170107142Y-83785714D01*
X170178571Y-83642857D01*
X170178571Y-83214285D01*
X170107142Y-83071428D01*
X170035714Y-83000000D01*
X169892857Y-82928571D01*
X169678571Y-82928571D01*
X169535714Y-83000000D01*
X169464285Y-83071428D01*
X169392857Y-83214285D01*
X169392857Y-83642857D01*
X169464285Y-83785714D01*
X169535714Y-83857142D01*
X169678571Y-83928571D01*
X169892857Y-83928571D01*
X168750000Y-82928571D02*
X168750000Y-83928571D01*
X168750000Y-83071428D02*
X168678571Y-83000000D01*
X168535714Y-82928571D01*
X168321428Y-82928571D01*
X168178571Y-83000000D01*
X168107142Y-83142857D01*
X168107142Y-83928571D01*
X165964285Y-82428571D02*
X165821428Y-82428571D01*
X165678571Y-82500000D01*
X165607142Y-82571428D01*
X165535714Y-82714285D01*
X165464285Y-83000000D01*
X165464285Y-83357142D01*
X165535714Y-83642857D01*
X165607142Y-83785714D01*
X165678571Y-83857142D01*
X165821428Y-83928571D01*
X165964285Y-83928571D01*
X166107142Y-83857142D01*
X166178571Y-83785714D01*
X166250000Y-83642857D01*
X166321428Y-83357142D01*
X166321428Y-83000000D01*
X166250000Y-82714285D01*
X166178571Y-82571428D01*
X166107142Y-82500000D01*
X165964285Y-82428571D01*
X164035714Y-83928571D02*
X164892857Y-83928571D01*
X164464285Y-83928571D02*
X164464285Y-82428571D01*
X164607142Y-82642857D01*
X164750000Y-82785714D01*
X164892857Y-82857142D01*
X180571428Y-86478571D02*
X180571428Y-84978571D01*
X180571428Y-85550000D02*
X180428571Y-85478571D01*
X180142857Y-85478571D01*
X180000000Y-85550000D01*
X179928571Y-85621428D01*
X179857142Y-85764285D01*
X179857142Y-86192857D01*
X179928571Y-86335714D01*
X180000000Y-86407142D01*
X180142857Y-86478571D01*
X180428571Y-86478571D01*
X180571428Y-86407142D01*
X179357142Y-85478571D02*
X179000000Y-86478571D01*
X178642857Y-85478571D02*
X179000000Y-86478571D01*
X179142857Y-86835714D01*
X179214285Y-86907142D01*
X179357142Y-86978571D01*
X177000000Y-86050000D02*
X176285714Y-86050000D01*
X177142857Y-86478571D02*
X176642857Y-84978571D01*
X176142857Y-86478571D01*
X175428571Y-86478571D02*
X175571428Y-86407142D01*
X175642857Y-86264285D01*
X175642857Y-84978571D01*
X174285714Y-86407142D02*
X174428571Y-86478571D01*
X174714285Y-86478571D01*
X174857142Y-86407142D01*
X174928571Y-86264285D01*
X174928571Y-85692857D01*
X174857142Y-85550000D01*
X174714285Y-85478571D01*
X174428571Y-85478571D01*
X174285714Y-85550000D01*
X174214285Y-85692857D01*
X174214285Y-85835714D01*
X174928571Y-85978571D01*
X173714285Y-86478571D02*
X172928571Y-85478571D01*
X173714285Y-85478571D02*
X172928571Y-86478571D01*
X171714285Y-86478571D02*
X171714285Y-85692857D01*
X171785714Y-85550000D01*
X171928571Y-85478571D01*
X172214285Y-85478571D01*
X172357142Y-85550000D01*
X171714285Y-86407142D02*
X171857142Y-86478571D01*
X172214285Y-86478571D01*
X172357142Y-86407142D01*
X172428571Y-86264285D01*
X172428571Y-86121428D01*
X172357142Y-85978571D01*
X172214285Y-85907142D01*
X171857142Y-85907142D01*
X171714285Y-85835714D01*
X171000000Y-85478571D02*
X171000000Y-86478571D01*
X171000000Y-85621428D02*
X170928571Y-85550000D01*
X170785714Y-85478571D01*
X170571428Y-85478571D01*
X170428571Y-85550000D01*
X170357142Y-85692857D01*
X170357142Y-86478571D01*
X169000000Y-86478571D02*
X169000000Y-84978571D01*
X169000000Y-86407142D02*
X169142857Y-86478571D01*
X169428571Y-86478571D01*
X169571428Y-86407142D01*
X169642857Y-86335714D01*
X169714285Y-86192857D01*
X169714285Y-85764285D01*
X169642857Y-85621428D01*
X169571428Y-85550000D01*
X169428571Y-85478571D01*
X169142857Y-85478571D01*
X169000000Y-85550000D01*
X167714285Y-86407142D02*
X167857142Y-86478571D01*
X168142857Y-86478571D01*
X168285714Y-86407142D01*
X168357142Y-86264285D01*
X168357142Y-85692857D01*
X168285714Y-85550000D01*
X168142857Y-85478571D01*
X167857142Y-85478571D01*
X167714285Y-85550000D01*
X167642857Y-85692857D01*
X167642857Y-85835714D01*
X168357142Y-85978571D01*
X167000000Y-86478571D02*
X167000000Y-85478571D01*
X167000000Y-85764285D02*
X166928571Y-85621428D01*
X166857142Y-85550000D01*
X166714285Y-85478571D01*
X166571428Y-85478571D01*
X164214285Y-86478571D02*
X164928571Y-86478571D01*
X164928571Y-84978571D01*
X163071428Y-85478571D02*
X163071428Y-86478571D01*
X163714285Y-85478571D02*
X163714285Y-86264285D01*
X163642857Y-86407142D01*
X163500000Y-86478571D01*
X163285714Y-86478571D01*
X163142857Y-86407142D01*
X163071428Y-86335714D01*
X162571428Y-85478571D02*
X162000000Y-85478571D01*
X162357142Y-84978571D02*
X162357142Y-86264285D01*
X162285714Y-86407142D01*
X162142857Y-86478571D01*
X162000000Y-86478571D01*
X161571428Y-86407142D02*
X161428571Y-86478571D01*
X161142857Y-86478571D01*
X161000000Y-86407142D01*
X160928571Y-86264285D01*
X160928571Y-86192857D01*
X161000000Y-86050000D01*
X161142857Y-85978571D01*
X161357142Y-85978571D01*
X161500000Y-85907142D01*
X161571428Y-85764285D01*
X161571428Y-85692857D01*
X161500000Y-85550000D01*
X161357142Y-85478571D01*
X161142857Y-85478571D01*
X161000000Y-85550000D01*
X159642857Y-86478571D02*
X159642857Y-85692857D01*
X159714285Y-85550000D01*
X159857142Y-85478571D01*
X160142857Y-85478571D01*
X160285714Y-85550000D01*
X159642857Y-86407142D02*
X159785714Y-86478571D01*
X160142857Y-86478571D01*
X160285714Y-86407142D01*
X160357142Y-86264285D01*
X160357142Y-86121428D01*
X160285714Y-85978571D01*
X160142857Y-85907142D01*
X159785714Y-85907142D01*
X159642857Y-85835714D01*
X158928571Y-86478571D02*
X158928571Y-85478571D01*
X158928571Y-84978571D02*
X159000000Y-85050000D01*
X158928571Y-85121428D01*
X158857142Y-85050000D01*
X158928571Y-84978571D01*
X158928571Y-85121428D01*
D11*
G04 #@! TO.C,J6*
X181344519Y-68750000D02*
X176844519Y-68750000D01*
X181344519Y-54500000D02*
X181344519Y-68750000D01*
X157844519Y-68750000D02*
X157844519Y-54500000D01*
X162344519Y-68750000D02*
X157844519Y-68750000D01*
X162344519Y-72250000D02*
X162344519Y-68750000D01*
X176844519Y-72250000D02*
X162344519Y-72250000D01*
X176844519Y-68750000D02*
X176844519Y-72250000D01*
X190844519Y-72250000D02*
X190844519Y-54500000D01*
X190844519Y-54500000D02*
X148344519Y-54500000D01*
X148344519Y-54500000D02*
X148344519Y-72250000D01*
X190844519Y-72250000D02*
X190844519Y-114750000D01*
X190844519Y-114750000D02*
X148344519Y-114750000D01*
X148344519Y-114750000D02*
X148344519Y-72250000D01*
X169927852Y-67202380D02*
X169927852Y-67916666D01*
X169975471Y-68059523D01*
X170070709Y-68154761D01*
X170213566Y-68202380D01*
X170308804Y-68202380D01*
X169023090Y-67202380D02*
X169213566Y-67202380D01*
X169308804Y-67250000D01*
X169356423Y-67297619D01*
X169451661Y-67440476D01*
X169499280Y-67630952D01*
X169499280Y-68011904D01*
X169451661Y-68107142D01*
X169404042Y-68154761D01*
X169308804Y-68202380D01*
X169118328Y-68202380D01*
X169023090Y-68154761D01*
X168975471Y-68107142D01*
X168927852Y-68011904D01*
X168927852Y-67773809D01*
X168975471Y-67678571D01*
X169023090Y-67630952D01*
X169118328Y-67583333D01*
X169308804Y-67583333D01*
X169404042Y-67630952D01*
X169451661Y-67678571D01*
X169499280Y-67773809D01*
G04 #@! TD*
M02*
