G04 #@! TF.GenerationSoftware,KiCad,Pcbnew,5.0.1*
G04 #@! TF.CreationDate,2019-01-30T17:32:38+03:00*
G04 #@! TF.ProjectId,core,636F72652E6B696361645F7063620000,rev?*
G04 #@! TF.SameCoordinates,Original*
G04 #@! TF.FileFunction,Soldermask,Bot*
G04 #@! TF.FilePolarity,Negative*
%FSLAX46Y46*%
G04 Gerber Fmt 4.6, Leading zero omitted, Abs format (unit mm)*
G04 Created by KiCad (PCBNEW 5.0.1) date Wed 30 Jan 2019 05:32:38 PM MSK*
%MOMM*%
%LPD*%
G01*
G04 APERTURE LIST*
%ADD10C,0.100000*%
G04 APERTURE END LIST*
D10*
G36*
X165108014Y-118281973D02*
X165211878Y-118313479D01*
X165307600Y-118364644D01*
X165391501Y-118433499D01*
X165460356Y-118517400D01*
X165511521Y-118613121D01*
X165543027Y-118716985D01*
X165551000Y-118797933D01*
X165551000Y-119402067D01*
X165543027Y-119483015D01*
X165511521Y-119586879D01*
X165460356Y-119682600D01*
X165391501Y-119766501D01*
X165307600Y-119835356D01*
X165211879Y-119886521D01*
X165108015Y-119918027D01*
X165000000Y-119928666D01*
X164891986Y-119918027D01*
X164788122Y-119886521D01*
X164692401Y-119835356D01*
X164608500Y-119766501D01*
X164539645Y-119682600D01*
X164488480Y-119586879D01*
X164456973Y-119483015D01*
X164449000Y-119402067D01*
X164449000Y-118797934D01*
X164456973Y-118716986D01*
X164488479Y-118613122D01*
X164539644Y-118517400D01*
X164608499Y-118433499D01*
X164692400Y-118364644D01*
X164788121Y-118313479D01*
X164891985Y-118281973D01*
X165000000Y-118271334D01*
X165108014Y-118281973D01*
X165108014Y-118281973D01*
G37*
G36*
X158108014Y-118281973D02*
X158211878Y-118313479D01*
X158307600Y-118364644D01*
X158391501Y-118433499D01*
X158460356Y-118517400D01*
X158511521Y-118613121D01*
X158543027Y-118716985D01*
X158551000Y-118797933D01*
X158551000Y-119402067D01*
X158543027Y-119483015D01*
X158511521Y-119586879D01*
X158460356Y-119682600D01*
X158391501Y-119766501D01*
X158307600Y-119835356D01*
X158211879Y-119886521D01*
X158108015Y-119918027D01*
X158000000Y-119928666D01*
X157891986Y-119918027D01*
X157788122Y-119886521D01*
X157692401Y-119835356D01*
X157608500Y-119766501D01*
X157539645Y-119682600D01*
X157488480Y-119586879D01*
X157456973Y-119483015D01*
X157449000Y-119402067D01*
X157449000Y-118797934D01*
X157456973Y-118716986D01*
X157488479Y-118613122D01*
X157539644Y-118517400D01*
X157608499Y-118433499D01*
X157692400Y-118364644D01*
X157788121Y-118313479D01*
X157891985Y-118281973D01*
X158000000Y-118271334D01*
X158108014Y-118281973D01*
X158108014Y-118281973D01*
G37*
G36*
X164253114Y-115881611D02*
X164352265Y-115911688D01*
X164443644Y-115960531D01*
X164523738Y-116026262D01*
X164589469Y-116106356D01*
X164638312Y-116197735D01*
X164668389Y-116296886D01*
X164678545Y-116400000D01*
X164668389Y-116503114D01*
X164638312Y-116602265D01*
X164589469Y-116693644D01*
X164523738Y-116773738D01*
X164443644Y-116839469D01*
X164352265Y-116888312D01*
X164253114Y-116918389D01*
X164175839Y-116926000D01*
X163824161Y-116926000D01*
X163746886Y-116918389D01*
X163647735Y-116888312D01*
X163556356Y-116839469D01*
X163476262Y-116773738D01*
X163410531Y-116693644D01*
X163361688Y-116602265D01*
X163331611Y-116503114D01*
X163321455Y-116400000D01*
X163331611Y-116296886D01*
X163361688Y-116197735D01*
X163410531Y-116106356D01*
X163476262Y-116026262D01*
X163556356Y-115960531D01*
X163647735Y-115911688D01*
X163746886Y-115881611D01*
X163824161Y-115874000D01*
X164175839Y-115874000D01*
X164253114Y-115881611D01*
X164253114Y-115881611D01*
G37*
G36*
X159253114Y-115881611D02*
X159352265Y-115911688D01*
X159443644Y-115960531D01*
X159523738Y-116026262D01*
X159589469Y-116106356D01*
X159638312Y-116197735D01*
X159668389Y-116296886D01*
X159678545Y-116400000D01*
X159668389Y-116503114D01*
X159638312Y-116602265D01*
X159589469Y-116693644D01*
X159523738Y-116773738D01*
X159443644Y-116839469D01*
X159352265Y-116888312D01*
X159253114Y-116918389D01*
X159175839Y-116926000D01*
X158824161Y-116926000D01*
X158746886Y-116918389D01*
X158647735Y-116888312D01*
X158556356Y-116839469D01*
X158476262Y-116773738D01*
X158410531Y-116693644D01*
X158361688Y-116602265D01*
X158331611Y-116503114D01*
X158321455Y-116400000D01*
X158331611Y-116296886D01*
X158361688Y-116197735D01*
X158410531Y-116106356D01*
X158476262Y-116026262D01*
X158556356Y-115960531D01*
X158647735Y-115911688D01*
X158746886Y-115881611D01*
X158824161Y-115874000D01*
X159175839Y-115874000D01*
X159253114Y-115881611D01*
X159253114Y-115881611D01*
G37*
G36*
X184110443Y-111145519D02*
X184176627Y-111152037D01*
X184289853Y-111186384D01*
X184346467Y-111203557D01*
X184462633Y-111265650D01*
X184502991Y-111287222D01*
X184504086Y-111288121D01*
X184640186Y-111399814D01*
X184722405Y-111500000D01*
X184752778Y-111537009D01*
X184752779Y-111537011D01*
X184836443Y-111693533D01*
X184853616Y-111750147D01*
X184887963Y-111863373D01*
X184905359Y-112040000D01*
X184887963Y-112216627D01*
X184853616Y-112329853D01*
X184836443Y-112386467D01*
X184762348Y-112525087D01*
X184752778Y-112542991D01*
X184723448Y-112578729D01*
X184640186Y-112680186D01*
X184538729Y-112763448D01*
X184502991Y-112792778D01*
X184502989Y-112792779D01*
X184346467Y-112876443D01*
X184289853Y-112893616D01*
X184176627Y-112927963D01*
X184110443Y-112934481D01*
X184044260Y-112941000D01*
X183955740Y-112941000D01*
X183889557Y-112934481D01*
X183823373Y-112927963D01*
X183710147Y-112893616D01*
X183653533Y-112876443D01*
X183497011Y-112792779D01*
X183497009Y-112792778D01*
X183461271Y-112763448D01*
X183359814Y-112680186D01*
X183276552Y-112578729D01*
X183247222Y-112542991D01*
X183237652Y-112525087D01*
X183163557Y-112386467D01*
X183146384Y-112329853D01*
X183112037Y-112216627D01*
X183094641Y-112040000D01*
X183112037Y-111863373D01*
X183146384Y-111750147D01*
X183163557Y-111693533D01*
X183247221Y-111537011D01*
X183247222Y-111537009D01*
X183277595Y-111500000D01*
X183359814Y-111399814D01*
X183495914Y-111288121D01*
X183497009Y-111287222D01*
X183537367Y-111265650D01*
X183653533Y-111203557D01*
X183710147Y-111186384D01*
X183823373Y-111152037D01*
X183889557Y-111145519D01*
X183955740Y-111139000D01*
X184044260Y-111139000D01*
X184110443Y-111145519D01*
X184110443Y-111145519D01*
G37*
G36*
X175801000Y-111177262D02*
X175803402Y-111201648D01*
X175810515Y-111225097D01*
X175822066Y-111246708D01*
X175837612Y-111265650D01*
X175856554Y-111281196D01*
X175878165Y-111292747D01*
X175901614Y-111299860D01*
X175926000Y-111302262D01*
X175950386Y-111299860D01*
X175973835Y-111292747D01*
X175995446Y-111281196D01*
X176014388Y-111265650D01*
X176036236Y-111236192D01*
X176059644Y-111192400D01*
X176128499Y-111108499D01*
X176212400Y-111039644D01*
X176308121Y-110988479D01*
X176411985Y-110956973D01*
X176492933Y-110949000D01*
X176547067Y-110949000D01*
X176628015Y-110956973D01*
X176731879Y-110988479D01*
X176827600Y-111039644D01*
X176911501Y-111108499D01*
X176980356Y-111192400D01*
X177031521Y-111288121D01*
X177063027Y-111391985D01*
X177073666Y-111500000D01*
X177063027Y-111608015D01*
X177031521Y-111711879D01*
X176980356Y-111807600D01*
X176911501Y-111891501D01*
X176827600Y-111960356D01*
X176731879Y-112011521D01*
X176628015Y-112043027D01*
X176547067Y-112051000D01*
X176492933Y-112051000D01*
X176411985Y-112043027D01*
X176308121Y-112011521D01*
X176212400Y-111960356D01*
X176128499Y-111891501D01*
X176059644Y-111807600D01*
X176036234Y-111763805D01*
X176022626Y-111743439D01*
X176005299Y-111726111D01*
X175984924Y-111712498D01*
X175962285Y-111703120D01*
X175938252Y-111698340D01*
X175913748Y-111698340D01*
X175889714Y-111703121D01*
X175867075Y-111712498D01*
X175846701Y-111726112D01*
X175829373Y-111743439D01*
X175815760Y-111763814D01*
X175806382Y-111786453D01*
X175801000Y-111822738D01*
X175801000Y-112051000D01*
X174699000Y-112051000D01*
X174699000Y-110949000D01*
X175801000Y-110949000D01*
X175801000Y-111177262D01*
X175801000Y-111177262D01*
G37*
G36*
X184901000Y-110401000D02*
X183099000Y-110401000D01*
X183099000Y-108599000D01*
X184901000Y-108599000D01*
X184901000Y-110401000D01*
X184901000Y-110401000D01*
G37*
G36*
X159401000Y-107151000D02*
X157599000Y-107151000D01*
X157599000Y-105349000D01*
X159401000Y-105349000D01*
X159401000Y-107151000D01*
X159401000Y-107151000D01*
G37*
G36*
X161150443Y-105355519D02*
X161216627Y-105362037D01*
X161329853Y-105396384D01*
X161386467Y-105413557D01*
X161525087Y-105487652D01*
X161542991Y-105497222D01*
X161578729Y-105526552D01*
X161680186Y-105609814D01*
X161763448Y-105711271D01*
X161792778Y-105747009D01*
X161792779Y-105747011D01*
X161876443Y-105903533D01*
X161876443Y-105903534D01*
X161927963Y-106073373D01*
X161945359Y-106250000D01*
X161927963Y-106426627D01*
X161893616Y-106539853D01*
X161876443Y-106596467D01*
X161802348Y-106735087D01*
X161792778Y-106752991D01*
X161763448Y-106788729D01*
X161680186Y-106890186D01*
X161578729Y-106973448D01*
X161542991Y-107002778D01*
X161542989Y-107002779D01*
X161386467Y-107086443D01*
X161329853Y-107103616D01*
X161216627Y-107137963D01*
X161150443Y-107144481D01*
X161084260Y-107151000D01*
X160995740Y-107151000D01*
X160929557Y-107144481D01*
X160863373Y-107137963D01*
X160750147Y-107103616D01*
X160693533Y-107086443D01*
X160537011Y-107002779D01*
X160537009Y-107002778D01*
X160501271Y-106973448D01*
X160399814Y-106890186D01*
X160316552Y-106788729D01*
X160287222Y-106752991D01*
X160277652Y-106735087D01*
X160203557Y-106596467D01*
X160186384Y-106539853D01*
X160152037Y-106426627D01*
X160134641Y-106250000D01*
X160152037Y-106073373D01*
X160203557Y-105903534D01*
X160203557Y-105903533D01*
X160287221Y-105747011D01*
X160287222Y-105747009D01*
X160316552Y-105711271D01*
X160399814Y-105609814D01*
X160501271Y-105526552D01*
X160537009Y-105497222D01*
X160554913Y-105487652D01*
X160693533Y-105413557D01*
X160750147Y-105396384D01*
X160863373Y-105362037D01*
X160929557Y-105355519D01*
X160995740Y-105349000D01*
X161084260Y-105349000D01*
X161150443Y-105355519D01*
X161150443Y-105355519D01*
G37*
G36*
X187941000Y-102901000D02*
X186139000Y-102901000D01*
X186139000Y-101099000D01*
X187941000Y-101099000D01*
X187941000Y-102901000D01*
X187941000Y-102901000D01*
G37*
G36*
X184610442Y-101105518D02*
X184676627Y-101112037D01*
X184789853Y-101146384D01*
X184846467Y-101163557D01*
X184985087Y-101237652D01*
X185002991Y-101247222D01*
X185038729Y-101276552D01*
X185140186Y-101359814D01*
X185223448Y-101461271D01*
X185252778Y-101497009D01*
X185252779Y-101497011D01*
X185336443Y-101653533D01*
X185336443Y-101653534D01*
X185387963Y-101823373D01*
X185405359Y-102000000D01*
X185387963Y-102176627D01*
X185353616Y-102289853D01*
X185336443Y-102346467D01*
X185262348Y-102485087D01*
X185252778Y-102502991D01*
X185223448Y-102538729D01*
X185140186Y-102640186D01*
X185038729Y-102723448D01*
X185002991Y-102752778D01*
X185002989Y-102752779D01*
X184846467Y-102836443D01*
X184789853Y-102853616D01*
X184676627Y-102887963D01*
X184610443Y-102894481D01*
X184544260Y-102901000D01*
X184455740Y-102901000D01*
X184389558Y-102894482D01*
X184323373Y-102887963D01*
X184210147Y-102853616D01*
X184153533Y-102836443D01*
X183997011Y-102752779D01*
X183997009Y-102752778D01*
X183961271Y-102723448D01*
X183859814Y-102640186D01*
X183776552Y-102538729D01*
X183747222Y-102502991D01*
X183737652Y-102485087D01*
X183663557Y-102346467D01*
X183646384Y-102289853D01*
X183612037Y-102176627D01*
X183594641Y-102000000D01*
X183612037Y-101823373D01*
X183663557Y-101653534D01*
X183663557Y-101653533D01*
X183747221Y-101497011D01*
X183747222Y-101497009D01*
X183776552Y-101461271D01*
X183859814Y-101359814D01*
X183961271Y-101276552D01*
X183997009Y-101247222D01*
X184014913Y-101237652D01*
X184153533Y-101163557D01*
X184210147Y-101146384D01*
X184323373Y-101112037D01*
X184389558Y-101105518D01*
X184455740Y-101099000D01*
X184544260Y-101099000D01*
X184610442Y-101105518D01*
X184610442Y-101105518D01*
G37*
G36*
X161093312Y-97280887D02*
X161183039Y-97308106D01*
X161265731Y-97352306D01*
X161338211Y-97411789D01*
X161397694Y-97484269D01*
X161397696Y-97484273D01*
X161403373Y-97491191D01*
X161420700Y-97508518D01*
X161441075Y-97522132D01*
X161463714Y-97531509D01*
X161487747Y-97536290D01*
X161512251Y-97536290D01*
X161536285Y-97531510D01*
X161558924Y-97522133D01*
X161579299Y-97508519D01*
X161596627Y-97491191D01*
X161602304Y-97484273D01*
X161602306Y-97484269D01*
X161661789Y-97411789D01*
X161734269Y-97352306D01*
X161816961Y-97308106D01*
X161906688Y-97280887D01*
X161976616Y-97274000D01*
X162023384Y-97274000D01*
X162093312Y-97280887D01*
X162183039Y-97308106D01*
X162265731Y-97352306D01*
X162338211Y-97411789D01*
X162397694Y-97484269D01*
X162397696Y-97484273D01*
X162403373Y-97491191D01*
X162420700Y-97508518D01*
X162441075Y-97522132D01*
X162463714Y-97531509D01*
X162487747Y-97536290D01*
X162512251Y-97536290D01*
X162536285Y-97531510D01*
X162558924Y-97522133D01*
X162579299Y-97508519D01*
X162596627Y-97491191D01*
X162602304Y-97484273D01*
X162602306Y-97484269D01*
X162661789Y-97411789D01*
X162734269Y-97352306D01*
X162816961Y-97308106D01*
X162906688Y-97280887D01*
X162976616Y-97274000D01*
X163023384Y-97274000D01*
X163093312Y-97280887D01*
X163183039Y-97308106D01*
X163265731Y-97352306D01*
X163338211Y-97411789D01*
X163397694Y-97484269D01*
X163397696Y-97484273D01*
X163403373Y-97491191D01*
X163420700Y-97508518D01*
X163441075Y-97522132D01*
X163463714Y-97531509D01*
X163487747Y-97536290D01*
X163512251Y-97536290D01*
X163536285Y-97531510D01*
X163558924Y-97522133D01*
X163579299Y-97508519D01*
X163596627Y-97491191D01*
X163602304Y-97484273D01*
X163602306Y-97484269D01*
X163661789Y-97411789D01*
X163734269Y-97352306D01*
X163816961Y-97308106D01*
X163906688Y-97280887D01*
X163976616Y-97274000D01*
X164023384Y-97274000D01*
X164093312Y-97280887D01*
X164183039Y-97308106D01*
X164265731Y-97352306D01*
X164338211Y-97411789D01*
X164397694Y-97484269D01*
X164397696Y-97484273D01*
X164403373Y-97491191D01*
X164420700Y-97508518D01*
X164441075Y-97522132D01*
X164463714Y-97531509D01*
X164487747Y-97536290D01*
X164512251Y-97536290D01*
X164536285Y-97531510D01*
X164558924Y-97522133D01*
X164579299Y-97508519D01*
X164596627Y-97491191D01*
X164602304Y-97484273D01*
X164602306Y-97484269D01*
X164661789Y-97411789D01*
X164734269Y-97352306D01*
X164816961Y-97308106D01*
X164906688Y-97280887D01*
X164976616Y-97274000D01*
X165023384Y-97274000D01*
X165093312Y-97280887D01*
X165183039Y-97308106D01*
X165265731Y-97352306D01*
X165338211Y-97411789D01*
X165397694Y-97484269D01*
X165397696Y-97484273D01*
X165403373Y-97491191D01*
X165420700Y-97508518D01*
X165441075Y-97522132D01*
X165463714Y-97531509D01*
X165487747Y-97536290D01*
X165512251Y-97536290D01*
X165536285Y-97531510D01*
X165558924Y-97522133D01*
X165579299Y-97508519D01*
X165596627Y-97491191D01*
X165602304Y-97484273D01*
X165602306Y-97484269D01*
X165661789Y-97411789D01*
X165734269Y-97352306D01*
X165816961Y-97308106D01*
X165906688Y-97280887D01*
X165976616Y-97274000D01*
X166023384Y-97274000D01*
X166093312Y-97280887D01*
X166183039Y-97308106D01*
X166265731Y-97352306D01*
X166338211Y-97411789D01*
X166397694Y-97484269D01*
X166397696Y-97484273D01*
X166403373Y-97491191D01*
X166420700Y-97508518D01*
X166441075Y-97522132D01*
X166463714Y-97531509D01*
X166487747Y-97536290D01*
X166512251Y-97536290D01*
X166536285Y-97531510D01*
X166558924Y-97522133D01*
X166579299Y-97508519D01*
X166596627Y-97491191D01*
X166602304Y-97484273D01*
X166602306Y-97484269D01*
X166661789Y-97411789D01*
X166734269Y-97352306D01*
X166816961Y-97308106D01*
X166906688Y-97280887D01*
X166976616Y-97274000D01*
X167023384Y-97274000D01*
X167093312Y-97280887D01*
X167183039Y-97308106D01*
X167265731Y-97352306D01*
X167319706Y-97396603D01*
X167340076Y-97410212D01*
X167362715Y-97419590D01*
X167386748Y-97424370D01*
X167411253Y-97424370D01*
X167435286Y-97419589D01*
X167457925Y-97410212D01*
X167478300Y-97396598D01*
X167495627Y-97379271D01*
X167509240Y-97358896D01*
X167518618Y-97336257D01*
X167524000Y-97299972D01*
X167524000Y-97274000D01*
X168476000Y-97274000D01*
X168476000Y-98226000D01*
X167524000Y-98226000D01*
X167524000Y-98200028D01*
X167521598Y-98175642D01*
X167514485Y-98152193D01*
X167502934Y-98130582D01*
X167487388Y-98111640D01*
X167468446Y-98096094D01*
X167446835Y-98084543D01*
X167423386Y-98077430D01*
X167399000Y-98075028D01*
X167374614Y-98077430D01*
X167351165Y-98084543D01*
X167319705Y-98103399D01*
X167265731Y-98147694D01*
X167183039Y-98191894D01*
X167093312Y-98219113D01*
X167023384Y-98226000D01*
X166976616Y-98226000D01*
X166906688Y-98219113D01*
X166816961Y-98191894D01*
X166734269Y-98147694D01*
X166661789Y-98088211D01*
X166602306Y-98015731D01*
X166602303Y-98015725D01*
X166596627Y-98008809D01*
X166579300Y-97991482D01*
X166558925Y-97977868D01*
X166536286Y-97968491D01*
X166512253Y-97963710D01*
X166487749Y-97963710D01*
X166463715Y-97968490D01*
X166441076Y-97977867D01*
X166420701Y-97991481D01*
X166403373Y-98008809D01*
X166397697Y-98015725D01*
X166397694Y-98015731D01*
X166338211Y-98088211D01*
X166265731Y-98147694D01*
X166183039Y-98191894D01*
X166093312Y-98219113D01*
X166023384Y-98226000D01*
X165976616Y-98226000D01*
X165906688Y-98219113D01*
X165816961Y-98191894D01*
X165734269Y-98147694D01*
X165661789Y-98088211D01*
X165602306Y-98015731D01*
X165602303Y-98015725D01*
X165596627Y-98008809D01*
X165579300Y-97991482D01*
X165558925Y-97977868D01*
X165536286Y-97968491D01*
X165512253Y-97963710D01*
X165487749Y-97963710D01*
X165463715Y-97968490D01*
X165441076Y-97977867D01*
X165420701Y-97991481D01*
X165403373Y-98008809D01*
X165397697Y-98015725D01*
X165397694Y-98015731D01*
X165338211Y-98088211D01*
X165265731Y-98147694D01*
X165183039Y-98191894D01*
X165093312Y-98219113D01*
X165023384Y-98226000D01*
X164976616Y-98226000D01*
X164906688Y-98219113D01*
X164816961Y-98191894D01*
X164734269Y-98147694D01*
X164661789Y-98088211D01*
X164602306Y-98015731D01*
X164602303Y-98015725D01*
X164596627Y-98008809D01*
X164579300Y-97991482D01*
X164558925Y-97977868D01*
X164536286Y-97968491D01*
X164512253Y-97963710D01*
X164487749Y-97963710D01*
X164463715Y-97968490D01*
X164441076Y-97977867D01*
X164420701Y-97991481D01*
X164403373Y-98008809D01*
X164397697Y-98015725D01*
X164397694Y-98015731D01*
X164338211Y-98088211D01*
X164265731Y-98147694D01*
X164183039Y-98191894D01*
X164093312Y-98219113D01*
X164023384Y-98226000D01*
X163976616Y-98226000D01*
X163906688Y-98219113D01*
X163816961Y-98191894D01*
X163734269Y-98147694D01*
X163661789Y-98088211D01*
X163602306Y-98015731D01*
X163602303Y-98015725D01*
X163596627Y-98008809D01*
X163579300Y-97991482D01*
X163558925Y-97977868D01*
X163536286Y-97968491D01*
X163512253Y-97963710D01*
X163487749Y-97963710D01*
X163463715Y-97968490D01*
X163441076Y-97977867D01*
X163420701Y-97991481D01*
X163403373Y-98008809D01*
X163397697Y-98015725D01*
X163397694Y-98015731D01*
X163338211Y-98088211D01*
X163265731Y-98147694D01*
X163183039Y-98191894D01*
X163093312Y-98219113D01*
X163023384Y-98226000D01*
X162976616Y-98226000D01*
X162906688Y-98219113D01*
X162816961Y-98191894D01*
X162734269Y-98147694D01*
X162661789Y-98088211D01*
X162602306Y-98015731D01*
X162602303Y-98015725D01*
X162596627Y-98008809D01*
X162579300Y-97991482D01*
X162558925Y-97977868D01*
X162536286Y-97968491D01*
X162512253Y-97963710D01*
X162487749Y-97963710D01*
X162463715Y-97968490D01*
X162441076Y-97977867D01*
X162420701Y-97991481D01*
X162403373Y-98008809D01*
X162397697Y-98015725D01*
X162397694Y-98015731D01*
X162338211Y-98088211D01*
X162265731Y-98147694D01*
X162183039Y-98191894D01*
X162093312Y-98219113D01*
X162023384Y-98226000D01*
X161976616Y-98226000D01*
X161906688Y-98219113D01*
X161816961Y-98191894D01*
X161734269Y-98147694D01*
X161661789Y-98088211D01*
X161602306Y-98015731D01*
X161602303Y-98015725D01*
X161596627Y-98008809D01*
X161579300Y-97991482D01*
X161558925Y-97977868D01*
X161536286Y-97968491D01*
X161512253Y-97963710D01*
X161487749Y-97963710D01*
X161463715Y-97968490D01*
X161441076Y-97977867D01*
X161420701Y-97991481D01*
X161403373Y-98008809D01*
X161397697Y-98015725D01*
X161397694Y-98015731D01*
X161338211Y-98088211D01*
X161265731Y-98147694D01*
X161183039Y-98191894D01*
X161093312Y-98219113D01*
X161023384Y-98226000D01*
X160976616Y-98226000D01*
X160906688Y-98219113D01*
X160816961Y-98191894D01*
X160734269Y-98147694D01*
X160661789Y-98088211D01*
X160602306Y-98015731D01*
X160558106Y-97933039D01*
X160530887Y-97843312D01*
X160521697Y-97750000D01*
X160530887Y-97656688D01*
X160558106Y-97566961D01*
X160602306Y-97484269D01*
X160661789Y-97411789D01*
X160734269Y-97352306D01*
X160816961Y-97308106D01*
X160906688Y-97280887D01*
X160976616Y-97274000D01*
X161023384Y-97274000D01*
X161093312Y-97280887D01*
X161093312Y-97280887D01*
G37*
G36*
X185901000Y-90401000D02*
X184099000Y-90401000D01*
X184099000Y-88599000D01*
X185901000Y-88599000D01*
X185901000Y-90401000D01*
X185901000Y-90401000D01*
G37*
G36*
X157551000Y-88281000D02*
X157322738Y-88281000D01*
X157298352Y-88283402D01*
X157274903Y-88290515D01*
X157253292Y-88302066D01*
X157234350Y-88317612D01*
X157218804Y-88336554D01*
X157207253Y-88358165D01*
X157200140Y-88381614D01*
X157197738Y-88406000D01*
X157200140Y-88430386D01*
X157207253Y-88453835D01*
X157218804Y-88475446D01*
X157234350Y-88494388D01*
X157263808Y-88516236D01*
X157307600Y-88539644D01*
X157391501Y-88608499D01*
X157460356Y-88692400D01*
X157511521Y-88788121D01*
X157543027Y-88891985D01*
X157553666Y-89000000D01*
X157543027Y-89108015D01*
X157511521Y-89211879D01*
X157460356Y-89307600D01*
X157391501Y-89391501D01*
X157307600Y-89460356D01*
X157211879Y-89511521D01*
X157108015Y-89543027D01*
X157027067Y-89551000D01*
X156972933Y-89551000D01*
X156891985Y-89543027D01*
X156788121Y-89511521D01*
X156692400Y-89460356D01*
X156608499Y-89391501D01*
X156539644Y-89307600D01*
X156488479Y-89211879D01*
X156456973Y-89108015D01*
X156446334Y-89000000D01*
X156456973Y-88891985D01*
X156488479Y-88788121D01*
X156539644Y-88692400D01*
X156608499Y-88608499D01*
X156692400Y-88539644D01*
X156736195Y-88516234D01*
X156756561Y-88502626D01*
X156773889Y-88485299D01*
X156787502Y-88464924D01*
X156796880Y-88442285D01*
X156801660Y-88418252D01*
X156801660Y-88393748D01*
X156796879Y-88369714D01*
X156787502Y-88347075D01*
X156773888Y-88326701D01*
X156756561Y-88309373D01*
X156736186Y-88295760D01*
X156713547Y-88286382D01*
X156677262Y-88281000D01*
X156449000Y-88281000D01*
X156449000Y-87179000D01*
X157551000Y-87179000D01*
X157551000Y-88281000D01*
X157551000Y-88281000D01*
G37*
G36*
X185110442Y-86065518D02*
X185176627Y-86072037D01*
X185289853Y-86106384D01*
X185346467Y-86123557D01*
X185485087Y-86197652D01*
X185502991Y-86207222D01*
X185538729Y-86236552D01*
X185640186Y-86319814D01*
X185723448Y-86421271D01*
X185752778Y-86457009D01*
X185752779Y-86457011D01*
X185836443Y-86613533D01*
X185836443Y-86613534D01*
X185887963Y-86783373D01*
X185905359Y-86960000D01*
X185887963Y-87136627D01*
X185875109Y-87179000D01*
X185836443Y-87306467D01*
X185762348Y-87445087D01*
X185752778Y-87462991D01*
X185723448Y-87498729D01*
X185640186Y-87600186D01*
X185538729Y-87683448D01*
X185502991Y-87712778D01*
X185502989Y-87712779D01*
X185346467Y-87796443D01*
X185289853Y-87813616D01*
X185176627Y-87847963D01*
X185110442Y-87854482D01*
X185044260Y-87861000D01*
X184955740Y-87861000D01*
X184889557Y-87854481D01*
X184823373Y-87847963D01*
X184710147Y-87813616D01*
X184653533Y-87796443D01*
X184497011Y-87712779D01*
X184497009Y-87712778D01*
X184461271Y-87683448D01*
X184359814Y-87600186D01*
X184276552Y-87498729D01*
X184247222Y-87462991D01*
X184237652Y-87445087D01*
X184163557Y-87306467D01*
X184124891Y-87179000D01*
X184112037Y-87136627D01*
X184094641Y-86960000D01*
X184112037Y-86783373D01*
X184163557Y-86613534D01*
X184163557Y-86613533D01*
X184247221Y-86457011D01*
X184247222Y-86457009D01*
X184276552Y-86421271D01*
X184359814Y-86319814D01*
X184461271Y-86236552D01*
X184497009Y-86207222D01*
X184514913Y-86197652D01*
X184653533Y-86123557D01*
X184710147Y-86106384D01*
X184823373Y-86072037D01*
X184889558Y-86065518D01*
X184955740Y-86059000D01*
X185044260Y-86059000D01*
X185110442Y-86065518D01*
X185110442Y-86065518D01*
G37*
G36*
X187551000Y-79011000D02*
X187322738Y-79011000D01*
X187298352Y-79013402D01*
X187274903Y-79020515D01*
X187253292Y-79032066D01*
X187234350Y-79047612D01*
X187218804Y-79066554D01*
X187207253Y-79088165D01*
X187200140Y-79111614D01*
X187197738Y-79136000D01*
X187200140Y-79160386D01*
X187207253Y-79183835D01*
X187218804Y-79205446D01*
X187234350Y-79224388D01*
X187263808Y-79246236D01*
X187307600Y-79269644D01*
X187391501Y-79338499D01*
X187460356Y-79422400D01*
X187511521Y-79518121D01*
X187543027Y-79621985D01*
X187553666Y-79730000D01*
X187543027Y-79838015D01*
X187511521Y-79941879D01*
X187460356Y-80037600D01*
X187391501Y-80121501D01*
X187307600Y-80190356D01*
X187211879Y-80241521D01*
X187199142Y-80245385D01*
X187176507Y-80254760D01*
X187156133Y-80268374D01*
X187138806Y-80285701D01*
X187125192Y-80306076D01*
X187115814Y-80328715D01*
X187111034Y-80352748D01*
X187111034Y-80377252D01*
X187115815Y-80401286D01*
X187125192Y-80423925D01*
X187138806Y-80444299D01*
X187156133Y-80461626D01*
X187176508Y-80475240D01*
X187199142Y-80484615D01*
X187211879Y-80488479D01*
X187307600Y-80539644D01*
X187391501Y-80608499D01*
X187460356Y-80692400D01*
X187511521Y-80788121D01*
X187543027Y-80891985D01*
X187553666Y-81000000D01*
X187543027Y-81108015D01*
X187511521Y-81211879D01*
X187460356Y-81307600D01*
X187391501Y-81391501D01*
X187307600Y-81460356D01*
X187211879Y-81511521D01*
X187199142Y-81515385D01*
X187176507Y-81524760D01*
X187156133Y-81538374D01*
X187138806Y-81555701D01*
X187125192Y-81576076D01*
X187115814Y-81598715D01*
X187111034Y-81622748D01*
X187111034Y-81647252D01*
X187115815Y-81671286D01*
X187125192Y-81693925D01*
X187138806Y-81714299D01*
X187156133Y-81731626D01*
X187176508Y-81745240D01*
X187199142Y-81754615D01*
X187211879Y-81758479D01*
X187307600Y-81809644D01*
X187391501Y-81878499D01*
X187460356Y-81962400D01*
X187511521Y-82058121D01*
X187543027Y-82161985D01*
X187553666Y-82270000D01*
X187543027Y-82378015D01*
X187511521Y-82481879D01*
X187460356Y-82577600D01*
X187391501Y-82661501D01*
X187307600Y-82730356D01*
X187211879Y-82781521D01*
X187199142Y-82785385D01*
X187176507Y-82794760D01*
X187156133Y-82808374D01*
X187138806Y-82825701D01*
X187125192Y-82846076D01*
X187115814Y-82868715D01*
X187111034Y-82892748D01*
X187111034Y-82917252D01*
X187115815Y-82941286D01*
X187125192Y-82963925D01*
X187138806Y-82984299D01*
X187156133Y-83001626D01*
X187176508Y-83015240D01*
X187199142Y-83024615D01*
X187211879Y-83028479D01*
X187307600Y-83079644D01*
X187391501Y-83148499D01*
X187460356Y-83232400D01*
X187511521Y-83328121D01*
X187543027Y-83431985D01*
X187553666Y-83540000D01*
X187543027Y-83648015D01*
X187511521Y-83751879D01*
X187460356Y-83847600D01*
X187391501Y-83931501D01*
X187307600Y-84000356D01*
X187211879Y-84051521D01*
X187108015Y-84083027D01*
X187027067Y-84091000D01*
X186972933Y-84091000D01*
X186891985Y-84083027D01*
X186788121Y-84051521D01*
X186692400Y-84000356D01*
X186608499Y-83931501D01*
X186539644Y-83847600D01*
X186488479Y-83751879D01*
X186456973Y-83648015D01*
X186446334Y-83540000D01*
X186456973Y-83431985D01*
X186488479Y-83328121D01*
X186539644Y-83232400D01*
X186608499Y-83148499D01*
X186692400Y-83079644D01*
X186788121Y-83028479D01*
X186800858Y-83024615D01*
X186823493Y-83015240D01*
X186843867Y-83001626D01*
X186861194Y-82984299D01*
X186874808Y-82963924D01*
X186884186Y-82941285D01*
X186888966Y-82917252D01*
X186888966Y-82892748D01*
X186884185Y-82868714D01*
X186874808Y-82846075D01*
X186861194Y-82825701D01*
X186843867Y-82808374D01*
X186823492Y-82794760D01*
X186800858Y-82785385D01*
X186788121Y-82781521D01*
X186692400Y-82730356D01*
X186608499Y-82661501D01*
X186539644Y-82577600D01*
X186488479Y-82481879D01*
X186456973Y-82378015D01*
X186446334Y-82270000D01*
X186456973Y-82161985D01*
X186488479Y-82058121D01*
X186539644Y-81962400D01*
X186608499Y-81878499D01*
X186692400Y-81809644D01*
X186788121Y-81758479D01*
X186800858Y-81754615D01*
X186823493Y-81745240D01*
X186843867Y-81731626D01*
X186861194Y-81714299D01*
X186874808Y-81693924D01*
X186884186Y-81671285D01*
X186888966Y-81647252D01*
X186888966Y-81622748D01*
X186884185Y-81598714D01*
X186874808Y-81576075D01*
X186861194Y-81555701D01*
X186843867Y-81538374D01*
X186823492Y-81524760D01*
X186800858Y-81515385D01*
X186788121Y-81511521D01*
X186692400Y-81460356D01*
X186608499Y-81391501D01*
X186539644Y-81307600D01*
X186488479Y-81211879D01*
X186456973Y-81108015D01*
X186446334Y-81000000D01*
X186456973Y-80891985D01*
X186488479Y-80788121D01*
X186539644Y-80692400D01*
X186608499Y-80608499D01*
X186692400Y-80539644D01*
X186788121Y-80488479D01*
X186800858Y-80484615D01*
X186823493Y-80475240D01*
X186843867Y-80461626D01*
X186861194Y-80444299D01*
X186874808Y-80423924D01*
X186884186Y-80401285D01*
X186888966Y-80377252D01*
X186888966Y-80352748D01*
X186884185Y-80328714D01*
X186874808Y-80306075D01*
X186861194Y-80285701D01*
X186843867Y-80268374D01*
X186823492Y-80254760D01*
X186800858Y-80245385D01*
X186788121Y-80241521D01*
X186692400Y-80190356D01*
X186608499Y-80121501D01*
X186539644Y-80037600D01*
X186488479Y-79941879D01*
X186456973Y-79838015D01*
X186446334Y-79730000D01*
X186456973Y-79621985D01*
X186488479Y-79518121D01*
X186539644Y-79422400D01*
X186608499Y-79338499D01*
X186692400Y-79269644D01*
X186736195Y-79246234D01*
X186756561Y-79232626D01*
X186773889Y-79215299D01*
X186787502Y-79194924D01*
X186796880Y-79172285D01*
X186801660Y-79148252D01*
X186801660Y-79123748D01*
X186796879Y-79099714D01*
X186787502Y-79077075D01*
X186773888Y-79056701D01*
X186756561Y-79039373D01*
X186736186Y-79025760D01*
X186713547Y-79016382D01*
X186677262Y-79011000D01*
X186449000Y-79011000D01*
X186449000Y-77909000D01*
X187551000Y-77909000D01*
X187551000Y-79011000D01*
X187551000Y-79011000D01*
G37*
G36*
X176705000Y-72067481D02*
X162495000Y-72067481D01*
X162495000Y-69465481D01*
X176705000Y-69465481D01*
X176705000Y-72067481D01*
X176705000Y-72067481D01*
G37*
G36*
X164780443Y-51645519D02*
X164846627Y-51652037D01*
X164959853Y-51686384D01*
X165016467Y-51703557D01*
X165155087Y-51777652D01*
X165172991Y-51787222D01*
X165208729Y-51816552D01*
X165310186Y-51899814D01*
X165393448Y-52001271D01*
X165422778Y-52037009D01*
X165422779Y-52037011D01*
X165506443Y-52193533D01*
X165506443Y-52193534D01*
X165557963Y-52363373D01*
X165575359Y-52540000D01*
X165557963Y-52716627D01*
X165523616Y-52829853D01*
X165506443Y-52886467D01*
X165432348Y-53025087D01*
X165422778Y-53042991D01*
X165393448Y-53078729D01*
X165310186Y-53180186D01*
X165208729Y-53263448D01*
X165172991Y-53292778D01*
X165172989Y-53292779D01*
X165016467Y-53376443D01*
X164959853Y-53393616D01*
X164846627Y-53427963D01*
X164780443Y-53434481D01*
X164714260Y-53441000D01*
X164625740Y-53441000D01*
X164559557Y-53434481D01*
X164493373Y-53427963D01*
X164380147Y-53393616D01*
X164323533Y-53376443D01*
X164167011Y-53292779D01*
X164167009Y-53292778D01*
X164131271Y-53263448D01*
X164029814Y-53180186D01*
X163946552Y-53078729D01*
X163917222Y-53042991D01*
X163907652Y-53025087D01*
X163833557Y-52886467D01*
X163816384Y-52829853D01*
X163782037Y-52716627D01*
X163764641Y-52540000D01*
X163782037Y-52363373D01*
X163833557Y-52193534D01*
X163833557Y-52193533D01*
X163917221Y-52037011D01*
X163917222Y-52037009D01*
X163946552Y-52001271D01*
X164029814Y-51899814D01*
X164131271Y-51816552D01*
X164167009Y-51787222D01*
X164184913Y-51777652D01*
X164323533Y-51703557D01*
X164380147Y-51686384D01*
X164493373Y-51652037D01*
X164559557Y-51645519D01*
X164625740Y-51639000D01*
X164714260Y-51639000D01*
X164780443Y-51645519D01*
X164780443Y-51645519D01*
G37*
G36*
X174940443Y-51645519D02*
X175006627Y-51652037D01*
X175119853Y-51686384D01*
X175176467Y-51703557D01*
X175315087Y-51777652D01*
X175332991Y-51787222D01*
X175368729Y-51816552D01*
X175470186Y-51899814D01*
X175553448Y-52001271D01*
X175582778Y-52037009D01*
X175582779Y-52037011D01*
X175666443Y-52193533D01*
X175666443Y-52193534D01*
X175717963Y-52363373D01*
X175735359Y-52540000D01*
X175717963Y-52716627D01*
X175683616Y-52829853D01*
X175666443Y-52886467D01*
X175592348Y-53025087D01*
X175582778Y-53042991D01*
X175553448Y-53078729D01*
X175470186Y-53180186D01*
X175368729Y-53263448D01*
X175332991Y-53292778D01*
X175332989Y-53292779D01*
X175176467Y-53376443D01*
X175119853Y-53393616D01*
X175006627Y-53427963D01*
X174940443Y-53434481D01*
X174874260Y-53441000D01*
X174785740Y-53441000D01*
X174719557Y-53434481D01*
X174653373Y-53427963D01*
X174540147Y-53393616D01*
X174483533Y-53376443D01*
X174327011Y-53292779D01*
X174327009Y-53292778D01*
X174291271Y-53263448D01*
X174189814Y-53180186D01*
X174106552Y-53078729D01*
X174077222Y-53042991D01*
X174067652Y-53025087D01*
X173993557Y-52886467D01*
X173976384Y-52829853D01*
X173942037Y-52716627D01*
X173924641Y-52540000D01*
X173942037Y-52363373D01*
X173993557Y-52193534D01*
X173993557Y-52193533D01*
X174077221Y-52037011D01*
X174077222Y-52037009D01*
X174106552Y-52001271D01*
X174189814Y-51899814D01*
X174291271Y-51816552D01*
X174327009Y-51787222D01*
X174344913Y-51777652D01*
X174483533Y-51703557D01*
X174540147Y-51686384D01*
X174653373Y-51652037D01*
X174719557Y-51645519D01*
X174785740Y-51639000D01*
X174874260Y-51639000D01*
X174940443Y-51645519D01*
X174940443Y-51645519D01*
G37*
G36*
X172400443Y-51645519D02*
X172466627Y-51652037D01*
X172579853Y-51686384D01*
X172636467Y-51703557D01*
X172775087Y-51777652D01*
X172792991Y-51787222D01*
X172828729Y-51816552D01*
X172930186Y-51899814D01*
X173013448Y-52001271D01*
X173042778Y-52037009D01*
X173042779Y-52037011D01*
X173126443Y-52193533D01*
X173126443Y-52193534D01*
X173177963Y-52363373D01*
X173195359Y-52540000D01*
X173177963Y-52716627D01*
X173143616Y-52829853D01*
X173126443Y-52886467D01*
X173052348Y-53025087D01*
X173042778Y-53042991D01*
X173013448Y-53078729D01*
X172930186Y-53180186D01*
X172828729Y-53263448D01*
X172792991Y-53292778D01*
X172792989Y-53292779D01*
X172636467Y-53376443D01*
X172579853Y-53393616D01*
X172466627Y-53427963D01*
X172400443Y-53434481D01*
X172334260Y-53441000D01*
X172245740Y-53441000D01*
X172179557Y-53434481D01*
X172113373Y-53427963D01*
X172000147Y-53393616D01*
X171943533Y-53376443D01*
X171787011Y-53292779D01*
X171787009Y-53292778D01*
X171751271Y-53263448D01*
X171649814Y-53180186D01*
X171566552Y-53078729D01*
X171537222Y-53042991D01*
X171527652Y-53025087D01*
X171453557Y-52886467D01*
X171436384Y-52829853D01*
X171402037Y-52716627D01*
X171384641Y-52540000D01*
X171402037Y-52363373D01*
X171453557Y-52193534D01*
X171453557Y-52193533D01*
X171537221Y-52037011D01*
X171537222Y-52037009D01*
X171566552Y-52001271D01*
X171649814Y-51899814D01*
X171751271Y-51816552D01*
X171787009Y-51787222D01*
X171804913Y-51777652D01*
X171943533Y-51703557D01*
X172000147Y-51686384D01*
X172113373Y-51652037D01*
X172179557Y-51645519D01*
X172245740Y-51639000D01*
X172334260Y-51639000D01*
X172400443Y-51645519D01*
X172400443Y-51645519D01*
G37*
G36*
X169860443Y-51645519D02*
X169926627Y-51652037D01*
X170039853Y-51686384D01*
X170096467Y-51703557D01*
X170235087Y-51777652D01*
X170252991Y-51787222D01*
X170288729Y-51816552D01*
X170390186Y-51899814D01*
X170473448Y-52001271D01*
X170502778Y-52037009D01*
X170502779Y-52037011D01*
X170586443Y-52193533D01*
X170586443Y-52193534D01*
X170637963Y-52363373D01*
X170655359Y-52540000D01*
X170637963Y-52716627D01*
X170603616Y-52829853D01*
X170586443Y-52886467D01*
X170512348Y-53025087D01*
X170502778Y-53042991D01*
X170473448Y-53078729D01*
X170390186Y-53180186D01*
X170288729Y-53263448D01*
X170252991Y-53292778D01*
X170252989Y-53292779D01*
X170096467Y-53376443D01*
X170039853Y-53393616D01*
X169926627Y-53427963D01*
X169860443Y-53434481D01*
X169794260Y-53441000D01*
X169705740Y-53441000D01*
X169639557Y-53434481D01*
X169573373Y-53427963D01*
X169460147Y-53393616D01*
X169403533Y-53376443D01*
X169247011Y-53292779D01*
X169247009Y-53292778D01*
X169211271Y-53263448D01*
X169109814Y-53180186D01*
X169026552Y-53078729D01*
X168997222Y-53042991D01*
X168987652Y-53025087D01*
X168913557Y-52886467D01*
X168896384Y-52829853D01*
X168862037Y-52716627D01*
X168844641Y-52540000D01*
X168862037Y-52363373D01*
X168913557Y-52193534D01*
X168913557Y-52193533D01*
X168997221Y-52037011D01*
X168997222Y-52037009D01*
X169026552Y-52001271D01*
X169109814Y-51899814D01*
X169211271Y-51816552D01*
X169247009Y-51787222D01*
X169264913Y-51777652D01*
X169403533Y-51703557D01*
X169460147Y-51686384D01*
X169573373Y-51652037D01*
X169639557Y-51645519D01*
X169705740Y-51639000D01*
X169794260Y-51639000D01*
X169860443Y-51645519D01*
X169860443Y-51645519D01*
G37*
G36*
X167320443Y-51645519D02*
X167386627Y-51652037D01*
X167499853Y-51686384D01*
X167556467Y-51703557D01*
X167695087Y-51777652D01*
X167712991Y-51787222D01*
X167748729Y-51816552D01*
X167850186Y-51899814D01*
X167933448Y-52001271D01*
X167962778Y-52037009D01*
X167962779Y-52037011D01*
X168046443Y-52193533D01*
X168046443Y-52193534D01*
X168097963Y-52363373D01*
X168115359Y-52540000D01*
X168097963Y-52716627D01*
X168063616Y-52829853D01*
X168046443Y-52886467D01*
X167972348Y-53025087D01*
X167962778Y-53042991D01*
X167933448Y-53078729D01*
X167850186Y-53180186D01*
X167748729Y-53263448D01*
X167712991Y-53292778D01*
X167712989Y-53292779D01*
X167556467Y-53376443D01*
X167499853Y-53393616D01*
X167386627Y-53427963D01*
X167320443Y-53434481D01*
X167254260Y-53441000D01*
X167165740Y-53441000D01*
X167099557Y-53434481D01*
X167033373Y-53427963D01*
X166920147Y-53393616D01*
X166863533Y-53376443D01*
X166707011Y-53292779D01*
X166707009Y-53292778D01*
X166671271Y-53263448D01*
X166569814Y-53180186D01*
X166486552Y-53078729D01*
X166457222Y-53042991D01*
X166447652Y-53025087D01*
X166373557Y-52886467D01*
X166356384Y-52829853D01*
X166322037Y-52716627D01*
X166304641Y-52540000D01*
X166322037Y-52363373D01*
X166373557Y-52193534D01*
X166373557Y-52193533D01*
X166457221Y-52037011D01*
X166457222Y-52037009D01*
X166486552Y-52001271D01*
X166569814Y-51899814D01*
X166671271Y-51816552D01*
X166707009Y-51787222D01*
X166724913Y-51777652D01*
X166863533Y-51703557D01*
X166920147Y-51686384D01*
X167033373Y-51652037D01*
X167099557Y-51645519D01*
X167165740Y-51639000D01*
X167254260Y-51639000D01*
X167320443Y-51645519D01*
X167320443Y-51645519D01*
G37*
G36*
X162240443Y-51645519D02*
X162306627Y-51652037D01*
X162419853Y-51686384D01*
X162476467Y-51703557D01*
X162615087Y-51777652D01*
X162632991Y-51787222D01*
X162668729Y-51816552D01*
X162770186Y-51899814D01*
X162853448Y-52001271D01*
X162882778Y-52037009D01*
X162882779Y-52037011D01*
X162966443Y-52193533D01*
X162966443Y-52193534D01*
X163017963Y-52363373D01*
X163035359Y-52540000D01*
X163017963Y-52716627D01*
X162983616Y-52829853D01*
X162966443Y-52886467D01*
X162892348Y-53025087D01*
X162882778Y-53042991D01*
X162853448Y-53078729D01*
X162770186Y-53180186D01*
X162668729Y-53263448D01*
X162632991Y-53292778D01*
X162632989Y-53292779D01*
X162476467Y-53376443D01*
X162419853Y-53393616D01*
X162306627Y-53427963D01*
X162240443Y-53434481D01*
X162174260Y-53441000D01*
X162085740Y-53441000D01*
X162019557Y-53434481D01*
X161953373Y-53427963D01*
X161840147Y-53393616D01*
X161783533Y-53376443D01*
X161627011Y-53292779D01*
X161627009Y-53292778D01*
X161591271Y-53263448D01*
X161489814Y-53180186D01*
X161406552Y-53078729D01*
X161377222Y-53042991D01*
X161367652Y-53025087D01*
X161293557Y-52886467D01*
X161276384Y-52829853D01*
X161242037Y-52716627D01*
X161224641Y-52540000D01*
X161242037Y-52363373D01*
X161293557Y-52193534D01*
X161293557Y-52193533D01*
X161377221Y-52037011D01*
X161377222Y-52037009D01*
X161406552Y-52001271D01*
X161489814Y-51899814D01*
X161591271Y-51816552D01*
X161627009Y-51787222D01*
X161644913Y-51777652D01*
X161783533Y-51703557D01*
X161840147Y-51686384D01*
X161953373Y-51652037D01*
X162019557Y-51645519D01*
X162085740Y-51639000D01*
X162174260Y-51639000D01*
X162240443Y-51645519D01*
X162240443Y-51645519D01*
G37*
G36*
X159700443Y-51645519D02*
X159766627Y-51652037D01*
X159879853Y-51686384D01*
X159936467Y-51703557D01*
X160075087Y-51777652D01*
X160092991Y-51787222D01*
X160128729Y-51816552D01*
X160230186Y-51899814D01*
X160313448Y-52001271D01*
X160342778Y-52037009D01*
X160342779Y-52037011D01*
X160426443Y-52193533D01*
X160426443Y-52193534D01*
X160477963Y-52363373D01*
X160495359Y-52540000D01*
X160477963Y-52716627D01*
X160443616Y-52829853D01*
X160426443Y-52886467D01*
X160352348Y-53025087D01*
X160342778Y-53042991D01*
X160313448Y-53078729D01*
X160230186Y-53180186D01*
X160128729Y-53263448D01*
X160092991Y-53292778D01*
X160092989Y-53292779D01*
X159936467Y-53376443D01*
X159879853Y-53393616D01*
X159766627Y-53427963D01*
X159700443Y-53434481D01*
X159634260Y-53441000D01*
X159545740Y-53441000D01*
X159479557Y-53434481D01*
X159413373Y-53427963D01*
X159300147Y-53393616D01*
X159243533Y-53376443D01*
X159087011Y-53292779D01*
X159087009Y-53292778D01*
X159051271Y-53263448D01*
X158949814Y-53180186D01*
X158866552Y-53078729D01*
X158837222Y-53042991D01*
X158827652Y-53025087D01*
X158753557Y-52886467D01*
X158736384Y-52829853D01*
X158702037Y-52716627D01*
X158684641Y-52540000D01*
X158702037Y-52363373D01*
X158753557Y-52193534D01*
X158753557Y-52193533D01*
X158837221Y-52037011D01*
X158837222Y-52037009D01*
X158866552Y-52001271D01*
X158949814Y-51899814D01*
X159051271Y-51816552D01*
X159087009Y-51787222D01*
X159104913Y-51777652D01*
X159243533Y-51703557D01*
X159300147Y-51686384D01*
X159413373Y-51652037D01*
X159479557Y-51645519D01*
X159545740Y-51639000D01*
X159634260Y-51639000D01*
X159700443Y-51645519D01*
X159700443Y-51645519D01*
G37*
G36*
X180020443Y-51645519D02*
X180086627Y-51652037D01*
X180199853Y-51686384D01*
X180256467Y-51703557D01*
X180395087Y-51777652D01*
X180412991Y-51787222D01*
X180448729Y-51816552D01*
X180550186Y-51899814D01*
X180633448Y-52001271D01*
X180662778Y-52037009D01*
X180662779Y-52037011D01*
X180746443Y-52193533D01*
X180746443Y-52193534D01*
X180797963Y-52363373D01*
X180815359Y-52540000D01*
X180797963Y-52716627D01*
X180763616Y-52829853D01*
X180746443Y-52886467D01*
X180672348Y-53025087D01*
X180662778Y-53042991D01*
X180633448Y-53078729D01*
X180550186Y-53180186D01*
X180448729Y-53263448D01*
X180412991Y-53292778D01*
X180412989Y-53292779D01*
X180256467Y-53376443D01*
X180199853Y-53393616D01*
X180086627Y-53427963D01*
X180020443Y-53434481D01*
X179954260Y-53441000D01*
X179865740Y-53441000D01*
X179799557Y-53434481D01*
X179733373Y-53427963D01*
X179620147Y-53393616D01*
X179563533Y-53376443D01*
X179407011Y-53292779D01*
X179407009Y-53292778D01*
X179371271Y-53263448D01*
X179269814Y-53180186D01*
X179186552Y-53078729D01*
X179157222Y-53042991D01*
X179147652Y-53025087D01*
X179073557Y-52886467D01*
X179056384Y-52829853D01*
X179022037Y-52716627D01*
X179004641Y-52540000D01*
X179022037Y-52363373D01*
X179073557Y-52193534D01*
X179073557Y-52193533D01*
X179157221Y-52037011D01*
X179157222Y-52037009D01*
X179186552Y-52001271D01*
X179269814Y-51899814D01*
X179371271Y-51816552D01*
X179407009Y-51787222D01*
X179424913Y-51777652D01*
X179563533Y-51703557D01*
X179620147Y-51686384D01*
X179733373Y-51652037D01*
X179799557Y-51645519D01*
X179865740Y-51639000D01*
X179954260Y-51639000D01*
X180020443Y-51645519D01*
X180020443Y-51645519D01*
G37*
G36*
X177480443Y-51645519D02*
X177546627Y-51652037D01*
X177659853Y-51686384D01*
X177716467Y-51703557D01*
X177855087Y-51777652D01*
X177872991Y-51787222D01*
X177908729Y-51816552D01*
X178010186Y-51899814D01*
X178093448Y-52001271D01*
X178122778Y-52037009D01*
X178122779Y-52037011D01*
X178206443Y-52193533D01*
X178206443Y-52193534D01*
X178257963Y-52363373D01*
X178275359Y-52540000D01*
X178257963Y-52716627D01*
X178223616Y-52829853D01*
X178206443Y-52886467D01*
X178132348Y-53025087D01*
X178122778Y-53042991D01*
X178093448Y-53078729D01*
X178010186Y-53180186D01*
X177908729Y-53263448D01*
X177872991Y-53292778D01*
X177872989Y-53292779D01*
X177716467Y-53376443D01*
X177659853Y-53393616D01*
X177546627Y-53427963D01*
X177480443Y-53434481D01*
X177414260Y-53441000D01*
X177325740Y-53441000D01*
X177259557Y-53434481D01*
X177193373Y-53427963D01*
X177080147Y-53393616D01*
X177023533Y-53376443D01*
X176867011Y-53292779D01*
X176867009Y-53292778D01*
X176831271Y-53263448D01*
X176729814Y-53180186D01*
X176646552Y-53078729D01*
X176617222Y-53042991D01*
X176607652Y-53025087D01*
X176533557Y-52886467D01*
X176516384Y-52829853D01*
X176482037Y-52716627D01*
X176464641Y-52540000D01*
X176482037Y-52363373D01*
X176533557Y-52193534D01*
X176533557Y-52193533D01*
X176617221Y-52037011D01*
X176617222Y-52037009D01*
X176646552Y-52001271D01*
X176729814Y-51899814D01*
X176831271Y-51816552D01*
X176867009Y-51787222D01*
X176884913Y-51777652D01*
X177023533Y-51703557D01*
X177080147Y-51686384D01*
X177193373Y-51652037D01*
X177259557Y-51645519D01*
X177325740Y-51639000D01*
X177414260Y-51639000D01*
X177480443Y-51645519D01*
X177480443Y-51645519D01*
G37*
G36*
X160491000Y-50901000D02*
X158689000Y-50901000D01*
X158689000Y-49099000D01*
X160491000Y-49099000D01*
X160491000Y-50901000D01*
X160491000Y-50901000D01*
G37*
G36*
X180020443Y-49105519D02*
X180086627Y-49112037D01*
X180199853Y-49146384D01*
X180256467Y-49163557D01*
X180395087Y-49237652D01*
X180412991Y-49247222D01*
X180448729Y-49276552D01*
X180550186Y-49359814D01*
X180633448Y-49461271D01*
X180662778Y-49497009D01*
X180662779Y-49497011D01*
X180746443Y-49653533D01*
X180746443Y-49653534D01*
X180797963Y-49823373D01*
X180815359Y-50000000D01*
X180797963Y-50176627D01*
X180763616Y-50289853D01*
X180746443Y-50346467D01*
X180672348Y-50485087D01*
X180662778Y-50502991D01*
X180633448Y-50538729D01*
X180550186Y-50640186D01*
X180448729Y-50723448D01*
X180412991Y-50752778D01*
X180412989Y-50752779D01*
X180256467Y-50836443D01*
X180199853Y-50853616D01*
X180086627Y-50887963D01*
X180020443Y-50894481D01*
X179954260Y-50901000D01*
X179865740Y-50901000D01*
X179799557Y-50894481D01*
X179733373Y-50887963D01*
X179620147Y-50853616D01*
X179563533Y-50836443D01*
X179407011Y-50752779D01*
X179407009Y-50752778D01*
X179371271Y-50723448D01*
X179269814Y-50640186D01*
X179186552Y-50538729D01*
X179157222Y-50502991D01*
X179147652Y-50485087D01*
X179073557Y-50346467D01*
X179056384Y-50289853D01*
X179022037Y-50176627D01*
X179004641Y-50000000D01*
X179022037Y-49823373D01*
X179073557Y-49653534D01*
X179073557Y-49653533D01*
X179157221Y-49497011D01*
X179157222Y-49497009D01*
X179186552Y-49461271D01*
X179269814Y-49359814D01*
X179371271Y-49276552D01*
X179407009Y-49247222D01*
X179424913Y-49237652D01*
X179563533Y-49163557D01*
X179620147Y-49146384D01*
X179733373Y-49112037D01*
X179799557Y-49105519D01*
X179865740Y-49099000D01*
X179954260Y-49099000D01*
X180020443Y-49105519D01*
X180020443Y-49105519D01*
G37*
G36*
X177480443Y-49105519D02*
X177546627Y-49112037D01*
X177659853Y-49146384D01*
X177716467Y-49163557D01*
X177855087Y-49237652D01*
X177872991Y-49247222D01*
X177908729Y-49276552D01*
X178010186Y-49359814D01*
X178093448Y-49461271D01*
X178122778Y-49497009D01*
X178122779Y-49497011D01*
X178206443Y-49653533D01*
X178206443Y-49653534D01*
X178257963Y-49823373D01*
X178275359Y-50000000D01*
X178257963Y-50176627D01*
X178223616Y-50289853D01*
X178206443Y-50346467D01*
X178132348Y-50485087D01*
X178122778Y-50502991D01*
X178093448Y-50538729D01*
X178010186Y-50640186D01*
X177908729Y-50723448D01*
X177872991Y-50752778D01*
X177872989Y-50752779D01*
X177716467Y-50836443D01*
X177659853Y-50853616D01*
X177546627Y-50887963D01*
X177480443Y-50894481D01*
X177414260Y-50901000D01*
X177325740Y-50901000D01*
X177259557Y-50894481D01*
X177193373Y-50887963D01*
X177080147Y-50853616D01*
X177023533Y-50836443D01*
X176867011Y-50752779D01*
X176867009Y-50752778D01*
X176831271Y-50723448D01*
X176729814Y-50640186D01*
X176646552Y-50538729D01*
X176617222Y-50502991D01*
X176607652Y-50485087D01*
X176533557Y-50346467D01*
X176516384Y-50289853D01*
X176482037Y-50176627D01*
X176464641Y-50000000D01*
X176482037Y-49823373D01*
X176533557Y-49653534D01*
X176533557Y-49653533D01*
X176617221Y-49497011D01*
X176617222Y-49497009D01*
X176646552Y-49461271D01*
X176729814Y-49359814D01*
X176831271Y-49276552D01*
X176867009Y-49247222D01*
X176884913Y-49237652D01*
X177023533Y-49163557D01*
X177080147Y-49146384D01*
X177193373Y-49112037D01*
X177259557Y-49105519D01*
X177325740Y-49099000D01*
X177414260Y-49099000D01*
X177480443Y-49105519D01*
X177480443Y-49105519D01*
G37*
G36*
X174940443Y-49105519D02*
X175006627Y-49112037D01*
X175119853Y-49146384D01*
X175176467Y-49163557D01*
X175315087Y-49237652D01*
X175332991Y-49247222D01*
X175368729Y-49276552D01*
X175470186Y-49359814D01*
X175553448Y-49461271D01*
X175582778Y-49497009D01*
X175582779Y-49497011D01*
X175666443Y-49653533D01*
X175666443Y-49653534D01*
X175717963Y-49823373D01*
X175735359Y-50000000D01*
X175717963Y-50176627D01*
X175683616Y-50289853D01*
X175666443Y-50346467D01*
X175592348Y-50485087D01*
X175582778Y-50502991D01*
X175553448Y-50538729D01*
X175470186Y-50640186D01*
X175368729Y-50723448D01*
X175332991Y-50752778D01*
X175332989Y-50752779D01*
X175176467Y-50836443D01*
X175119853Y-50853616D01*
X175006627Y-50887963D01*
X174940443Y-50894481D01*
X174874260Y-50901000D01*
X174785740Y-50901000D01*
X174719557Y-50894481D01*
X174653373Y-50887963D01*
X174540147Y-50853616D01*
X174483533Y-50836443D01*
X174327011Y-50752779D01*
X174327009Y-50752778D01*
X174291271Y-50723448D01*
X174189814Y-50640186D01*
X174106552Y-50538729D01*
X174077222Y-50502991D01*
X174067652Y-50485087D01*
X173993557Y-50346467D01*
X173976384Y-50289853D01*
X173942037Y-50176627D01*
X173924641Y-50000000D01*
X173942037Y-49823373D01*
X173993557Y-49653534D01*
X173993557Y-49653533D01*
X174077221Y-49497011D01*
X174077222Y-49497009D01*
X174106552Y-49461271D01*
X174189814Y-49359814D01*
X174291271Y-49276552D01*
X174327009Y-49247222D01*
X174344913Y-49237652D01*
X174483533Y-49163557D01*
X174540147Y-49146384D01*
X174653373Y-49112037D01*
X174719557Y-49105519D01*
X174785740Y-49099000D01*
X174874260Y-49099000D01*
X174940443Y-49105519D01*
X174940443Y-49105519D01*
G37*
G36*
X172400443Y-49105519D02*
X172466627Y-49112037D01*
X172579853Y-49146384D01*
X172636467Y-49163557D01*
X172775087Y-49237652D01*
X172792991Y-49247222D01*
X172828729Y-49276552D01*
X172930186Y-49359814D01*
X173013448Y-49461271D01*
X173042778Y-49497009D01*
X173042779Y-49497011D01*
X173126443Y-49653533D01*
X173126443Y-49653534D01*
X173177963Y-49823373D01*
X173195359Y-50000000D01*
X173177963Y-50176627D01*
X173143616Y-50289853D01*
X173126443Y-50346467D01*
X173052348Y-50485087D01*
X173042778Y-50502991D01*
X173013448Y-50538729D01*
X172930186Y-50640186D01*
X172828729Y-50723448D01*
X172792991Y-50752778D01*
X172792989Y-50752779D01*
X172636467Y-50836443D01*
X172579853Y-50853616D01*
X172466627Y-50887963D01*
X172400443Y-50894481D01*
X172334260Y-50901000D01*
X172245740Y-50901000D01*
X172179557Y-50894481D01*
X172113373Y-50887963D01*
X172000147Y-50853616D01*
X171943533Y-50836443D01*
X171787011Y-50752779D01*
X171787009Y-50752778D01*
X171751271Y-50723448D01*
X171649814Y-50640186D01*
X171566552Y-50538729D01*
X171537222Y-50502991D01*
X171527652Y-50485087D01*
X171453557Y-50346467D01*
X171436384Y-50289853D01*
X171402037Y-50176627D01*
X171384641Y-50000000D01*
X171402037Y-49823373D01*
X171453557Y-49653534D01*
X171453557Y-49653533D01*
X171537221Y-49497011D01*
X171537222Y-49497009D01*
X171566552Y-49461271D01*
X171649814Y-49359814D01*
X171751271Y-49276552D01*
X171787009Y-49247222D01*
X171804913Y-49237652D01*
X171943533Y-49163557D01*
X172000147Y-49146384D01*
X172113373Y-49112037D01*
X172179557Y-49105519D01*
X172245740Y-49099000D01*
X172334260Y-49099000D01*
X172400443Y-49105519D01*
X172400443Y-49105519D01*
G37*
G36*
X169860443Y-49105519D02*
X169926627Y-49112037D01*
X170039853Y-49146384D01*
X170096467Y-49163557D01*
X170235087Y-49237652D01*
X170252991Y-49247222D01*
X170288729Y-49276552D01*
X170390186Y-49359814D01*
X170473448Y-49461271D01*
X170502778Y-49497009D01*
X170502779Y-49497011D01*
X170586443Y-49653533D01*
X170586443Y-49653534D01*
X170637963Y-49823373D01*
X170655359Y-50000000D01*
X170637963Y-50176627D01*
X170603616Y-50289853D01*
X170586443Y-50346467D01*
X170512348Y-50485087D01*
X170502778Y-50502991D01*
X170473448Y-50538729D01*
X170390186Y-50640186D01*
X170288729Y-50723448D01*
X170252991Y-50752778D01*
X170252989Y-50752779D01*
X170096467Y-50836443D01*
X170039853Y-50853616D01*
X169926627Y-50887963D01*
X169860443Y-50894481D01*
X169794260Y-50901000D01*
X169705740Y-50901000D01*
X169639557Y-50894481D01*
X169573373Y-50887963D01*
X169460147Y-50853616D01*
X169403533Y-50836443D01*
X169247011Y-50752779D01*
X169247009Y-50752778D01*
X169211271Y-50723448D01*
X169109814Y-50640186D01*
X169026552Y-50538729D01*
X168997222Y-50502991D01*
X168987652Y-50485087D01*
X168913557Y-50346467D01*
X168896384Y-50289853D01*
X168862037Y-50176627D01*
X168844641Y-50000000D01*
X168862037Y-49823373D01*
X168913557Y-49653534D01*
X168913557Y-49653533D01*
X168997221Y-49497011D01*
X168997222Y-49497009D01*
X169026552Y-49461271D01*
X169109814Y-49359814D01*
X169211271Y-49276552D01*
X169247009Y-49247222D01*
X169264913Y-49237652D01*
X169403533Y-49163557D01*
X169460147Y-49146384D01*
X169573373Y-49112037D01*
X169639557Y-49105519D01*
X169705740Y-49099000D01*
X169794260Y-49099000D01*
X169860443Y-49105519D01*
X169860443Y-49105519D01*
G37*
G36*
X167320443Y-49105519D02*
X167386627Y-49112037D01*
X167499853Y-49146384D01*
X167556467Y-49163557D01*
X167695087Y-49237652D01*
X167712991Y-49247222D01*
X167748729Y-49276552D01*
X167850186Y-49359814D01*
X167933448Y-49461271D01*
X167962778Y-49497009D01*
X167962779Y-49497011D01*
X168046443Y-49653533D01*
X168046443Y-49653534D01*
X168097963Y-49823373D01*
X168115359Y-50000000D01*
X168097963Y-50176627D01*
X168063616Y-50289853D01*
X168046443Y-50346467D01*
X167972348Y-50485087D01*
X167962778Y-50502991D01*
X167933448Y-50538729D01*
X167850186Y-50640186D01*
X167748729Y-50723448D01*
X167712991Y-50752778D01*
X167712989Y-50752779D01*
X167556467Y-50836443D01*
X167499853Y-50853616D01*
X167386627Y-50887963D01*
X167320443Y-50894481D01*
X167254260Y-50901000D01*
X167165740Y-50901000D01*
X167099557Y-50894481D01*
X167033373Y-50887963D01*
X166920147Y-50853616D01*
X166863533Y-50836443D01*
X166707011Y-50752779D01*
X166707009Y-50752778D01*
X166671271Y-50723448D01*
X166569814Y-50640186D01*
X166486552Y-50538729D01*
X166457222Y-50502991D01*
X166447652Y-50485087D01*
X166373557Y-50346467D01*
X166356384Y-50289853D01*
X166322037Y-50176627D01*
X166304641Y-50000000D01*
X166322037Y-49823373D01*
X166373557Y-49653534D01*
X166373557Y-49653533D01*
X166457221Y-49497011D01*
X166457222Y-49497009D01*
X166486552Y-49461271D01*
X166569814Y-49359814D01*
X166671271Y-49276552D01*
X166707009Y-49247222D01*
X166724913Y-49237652D01*
X166863533Y-49163557D01*
X166920147Y-49146384D01*
X167033373Y-49112037D01*
X167099557Y-49105519D01*
X167165740Y-49099000D01*
X167254260Y-49099000D01*
X167320443Y-49105519D01*
X167320443Y-49105519D01*
G37*
G36*
X164780443Y-49105519D02*
X164846627Y-49112037D01*
X164959853Y-49146384D01*
X165016467Y-49163557D01*
X165155087Y-49237652D01*
X165172991Y-49247222D01*
X165208729Y-49276552D01*
X165310186Y-49359814D01*
X165393448Y-49461271D01*
X165422778Y-49497009D01*
X165422779Y-49497011D01*
X165506443Y-49653533D01*
X165506443Y-49653534D01*
X165557963Y-49823373D01*
X165575359Y-50000000D01*
X165557963Y-50176627D01*
X165523616Y-50289853D01*
X165506443Y-50346467D01*
X165432348Y-50485087D01*
X165422778Y-50502991D01*
X165393448Y-50538729D01*
X165310186Y-50640186D01*
X165208729Y-50723448D01*
X165172991Y-50752778D01*
X165172989Y-50752779D01*
X165016467Y-50836443D01*
X164959853Y-50853616D01*
X164846627Y-50887963D01*
X164780443Y-50894481D01*
X164714260Y-50901000D01*
X164625740Y-50901000D01*
X164559557Y-50894481D01*
X164493373Y-50887963D01*
X164380147Y-50853616D01*
X164323533Y-50836443D01*
X164167011Y-50752779D01*
X164167009Y-50752778D01*
X164131271Y-50723448D01*
X164029814Y-50640186D01*
X163946552Y-50538729D01*
X163917222Y-50502991D01*
X163907652Y-50485087D01*
X163833557Y-50346467D01*
X163816384Y-50289853D01*
X163782037Y-50176627D01*
X163764641Y-50000000D01*
X163782037Y-49823373D01*
X163833557Y-49653534D01*
X163833557Y-49653533D01*
X163917221Y-49497011D01*
X163917222Y-49497009D01*
X163946552Y-49461271D01*
X164029814Y-49359814D01*
X164131271Y-49276552D01*
X164167009Y-49247222D01*
X164184913Y-49237652D01*
X164323533Y-49163557D01*
X164380147Y-49146384D01*
X164493373Y-49112037D01*
X164559557Y-49105519D01*
X164625740Y-49099000D01*
X164714260Y-49099000D01*
X164780443Y-49105519D01*
X164780443Y-49105519D01*
G37*
G36*
X162240443Y-49105519D02*
X162306627Y-49112037D01*
X162419853Y-49146384D01*
X162476467Y-49163557D01*
X162615087Y-49237652D01*
X162632991Y-49247222D01*
X162668729Y-49276552D01*
X162770186Y-49359814D01*
X162853448Y-49461271D01*
X162882778Y-49497009D01*
X162882779Y-49497011D01*
X162966443Y-49653533D01*
X162966443Y-49653534D01*
X163017963Y-49823373D01*
X163035359Y-50000000D01*
X163017963Y-50176627D01*
X162983616Y-50289853D01*
X162966443Y-50346467D01*
X162892348Y-50485087D01*
X162882778Y-50502991D01*
X162853448Y-50538729D01*
X162770186Y-50640186D01*
X162668729Y-50723448D01*
X162632991Y-50752778D01*
X162632989Y-50752779D01*
X162476467Y-50836443D01*
X162419853Y-50853616D01*
X162306627Y-50887963D01*
X162240443Y-50894481D01*
X162174260Y-50901000D01*
X162085740Y-50901000D01*
X162019557Y-50894481D01*
X161953373Y-50887963D01*
X161840147Y-50853616D01*
X161783533Y-50836443D01*
X161627011Y-50752779D01*
X161627009Y-50752778D01*
X161591271Y-50723448D01*
X161489814Y-50640186D01*
X161406552Y-50538729D01*
X161377222Y-50502991D01*
X161367652Y-50485087D01*
X161293557Y-50346467D01*
X161276384Y-50289853D01*
X161242037Y-50176627D01*
X161224641Y-50000000D01*
X161242037Y-49823373D01*
X161293557Y-49653534D01*
X161293557Y-49653533D01*
X161377221Y-49497011D01*
X161377222Y-49497009D01*
X161406552Y-49461271D01*
X161489814Y-49359814D01*
X161591271Y-49276552D01*
X161627009Y-49247222D01*
X161644913Y-49237652D01*
X161783533Y-49163557D01*
X161840147Y-49146384D01*
X161953373Y-49112037D01*
X162019557Y-49105519D01*
X162085740Y-49099000D01*
X162174260Y-49099000D01*
X162240443Y-49105519D01*
X162240443Y-49105519D01*
G37*
M02*
